<svg width="113" height="113" viewBox="0 0 113 113" fill="none" xmlns="http://www.w3.org/2000/svg">
<path fill-rule="evenodd" clip-rule="evenodd" d="M113 56.5C113 71.4847 107.047 85.8557 96.4515 96.4515C85.8557 107.047 71.4847 113 56.5 113C41.5153 113 27.1443 107.047 16.5485 96.4515C5.95266 85.8557 0 71.4847 0 56.5C0 41.5153 5.95266 27.1443 16.5485 16.5485C27.1443 5.95266 41.5153 0 56.5 0C71.4847 0 85.8557 5.95266 96.4515 16.5485C107.047 27.1443 113 41.5153 113 56.5ZM60.0312 28.25C60.0312 27.3135 59.6592 26.4153 58.997 25.753C58.3347 25.0908 57.4365 24.7188 56.5 24.7188C55.5635 24.7188 54.6653 25.0908 54.003 25.753C53.3408 26.4153 52.9688 27.3135 52.9688 28.25V52.9688H28.25C27.3135 52.9688 26.4153 53.3408 25.753 54.003C25.0908 54.6653 24.7188 55.5635 24.7188 56.5C24.7188 57.4365 25.0908 58.3347 25.753 58.997C26.4153 59.6592 27.3135 60.0312 28.25 60.0312H52.9688V84.75C52.9688 85.6865 53.3408 86.5847 54.003 87.247C54.6653 87.9092 55.5635 88.2812 56.5 88.2812C57.4365 88.2812 58.3347 87.9092 58.997 87.247C59.6592 86.5847 60.0312 85.6865 60.0312 84.75V60.0312H84.75C85.6865 60.0312 86.5847 59.6592 87.247 58.997C87.9092 58.3347 88.2812 57.4365 88.2812 56.5C88.2812 55.5635 87.9092 54.6653 87.247 54.003C86.5847 53.3408 85.6865 52.9688 84.75 52.9688H60.0312V28.25Z" fill="#C8C8C8"/>
</svg>
