<svg width="16" height="17" viewBox="0 0 16 17" fill="none" xmlns="http://www.w3.org/2000/svg">
<path d="M8.75333 15.0518C8.75333 14.7618 8.63796 14.4837 8.43258 14.2787L3.73602 9.59202H14.2207C14.5108 9.59202 14.789 9.47697 14.9941 9.27219C15.1992 9.06741 15.3145 8.78967 15.3145 8.50006C15.3145 8.21046 15.1992 7.93271 14.9941 7.72793C14.789 7.52315 14.5108 7.4081 14.2207 7.4081H3.73602L8.43258 2.72142C8.53427 2.6199 8.61494 2.49937 8.66997 2.36672C8.72501 2.23407 8.75333 2.0919 8.75333 1.94832C8.75333 1.80474 8.72501 1.66256 8.66997 1.52991C8.61494 1.39727 8.53427 1.27674 8.43258 1.17521C8.33089 1.07369 8.21016 0.993151 8.07729 0.938205C7.94443 0.88326 7.80202 0.85498 7.6582 0.85498C7.51439 0.85498 7.37198 0.88326 7.23912 0.938205C7.10625 0.993151 6.98552 1.07369 6.88383 1.17521L0.32133 7.72695C0.219473 7.82839 0.13866 7.94889 0.0835209 8.08155C0.0283818 8.21421 0 8.35643 0 8.50006C0 8.64369 0.0283818 8.78591 0.0835209 8.91857C0.13866 9.05123 0.219473 9.17173 0.32133 9.27317L6.88383 15.8249C7.08921 16.03 7.36776 16.1451 7.6582 16.1451C7.94865 16.1451 8.2272 16.03 8.43258 15.8249C8.63796 15.6199 8.75333 15.3418 8.75333 15.0518Z" fill="#797979"/>
</svg>
