<svg width="16" height="17" viewBox="0 0 16 17" fill="none" xmlns="http://www.w3.org/2000/svg">
<path d="M6.87557 15.0518C6.87557 14.7618 6.99095 14.4837 7.19633 14.2787L11.8929 9.59202H1.4082C1.11812 9.59202 0.839922 9.47697 0.634804 9.27219C0.429686 9.06741 0.314453 8.78967 0.314453 8.50006C0.314453 8.21046 0.429686 7.93271 0.634804 7.72793C0.839922 7.52315 1.11812 7.4081 1.4082 7.4081H11.8929L7.19633 2.72142C7.09463 2.6199 7.01397 2.49937 6.95893 2.36672C6.9039 2.23407 6.87557 2.0919 6.87557 1.94832C6.87557 1.80474 6.9039 1.66256 6.95893 1.52991C7.01397 1.39727 7.09463 1.27674 7.19633 1.17521C7.29802 1.07369 7.41875 0.993151 7.55161 0.938205C7.68448 0.88326 7.82689 0.85498 7.9707 0.85498C8.11452 0.85498 8.25692 0.88326 8.38979 0.938205C8.52266 0.993151 8.64339 1.07369 8.74508 1.17521L15.3076 7.72695C15.4094 7.82839 15.4902 7.94889 15.5454 8.08155C15.6005 8.21421 15.6289 8.35643 15.6289 8.50006C15.6289 8.64369 15.6005 8.78591 15.5454 8.91857C15.4902 9.05123 15.4094 9.17173 15.3076 9.27317L8.74508 15.8249C8.5397 16.03 8.26115 16.1451 7.9707 16.1451C7.68026 16.1451 7.4017 16.03 7.19633 15.8249C6.99095 15.6199 6.87557 15.3418 6.87557 15.0518Z" fill="#797979"/>
</svg>
