<svg width="423" height="272" viewBox="0 0 423 272" fill="none" xmlns="http://www.w3.org/2000/svg">
    <path fill-rule="evenodd" clip-rule="evenodd" d="M2.91077 173.309C18.4297 136.849 51.343 141.944 66.3492 123.697C81.3553 105.45 72.295 45.1051 125.359 22.8445C178.424 0.583812 210.225 29.9436 228.083 58.017C245.941 86.0902 309.534 8.75135 375.193 46.2978C440.853 83.8443 387.989 162.143 402.547 203.519C417.104 244.897 399.179 265 354.67 265C310.16 265 96.4531 265 60.9229 265C25.3927 265 -10.6091 205.072 2.91077 173.309Z" fill="#8D64FF"/>
    <path d="M40.5876 265C1.91288 265 -8.93852 212.056 26.6254 196.883C26.9853 196.729 27.3479 196.575 27.7133 196.419C64.255 180.878 23.4233 139.675 67.2732 94.3304C90.7716 70.0312 127.918 85.2444 138.475 59.1204C149.031 32.9964 205.998 8.46536 245.424 43.0735C301.044 91.8963 327.722 43.1723 359.602 72.4861C383.6 94.5527 358.535 112.927 404.335 174.159C413.82 186.84 425.984 216.724 422.337 236.09C419.18 252.86 404.5 265 387.409 265H40.5876Z" fill="#658FFD"/>
    <path d="M357.499 272H68.5011C67.1198 272 66 270.433 66 268.5C66 266.567 67.1198 265 68.5011 265H357.499C358.88 265 360 266.567 360 268.5C360 270.433 358.88 272 357.499 272Z" fill="#C3E0F4"/>
    <g opacity="0.33">
        <g opacity="0.33">
            <path opacity="0.33" d="M265.014 173C265.014 173 306.328 138.492 272.973 106.364C239.617 74.2361 269.684 28.9012 288.945 24H347C327.739 28.9012 297.672 74.2361 331.027 106.364C364.382 138.492 323.069 173 323.069 173H265.014Z" fill="white"/>
        </g>
    </g>
    <path d="M257 71H145V268H257V71Z" fill="white"/>
    <path d="M252 268H138V66H247.455C249.965 66 252 68.03 252 70.5342V268Z" fill="#FBC300"/>
    <path d="M245 268H122V67.4094C122 64.4218 124.417 62 127.399 62H245V268Z" fill="white"/>
    <path d="M230 231H136V256H230V231Z" fill="#8D64FF"/>
    <path d="M230 181H175V224H230V181Z" fill="#8D64FF"/>
    <path d="M153.792 79.3314V103.574H151.015L138.101 84.5398H137.87V103.574H135V79.3314H137.777L150.737 98.4129H150.968V79.3314H153.792Z" fill="#8D64FF"/>
    <path d="M159.534 103.574V79.3314H173.836V81.9356H162.404V90.1269H173.096V92.7311H162.404V100.97H174.021V103.574H159.534Z" fill="#8D64FF"/>
    <path d="M183.313 103.574L176.833 79.3314H179.749L184.702 99.0758H184.933L189.978 79.3314H193.218L198.263 99.0758H198.495L203.447 79.3314H206.363L199.883 103.574H196.921L191.691 84.2557H191.506L186.276 103.574H183.313Z" fill="#8D64FF"/>
    <path d="M222.899 85.392C222.76 84.1926 222.197 83.2614 221.209 82.5985C220.222 81.9356 219.011 81.6042 217.576 81.6042C216.527 81.6042 215.609 81.7778 214.822 82.125C214.043 82.4722 213.434 82.9497 212.994 83.5573C212.562 84.1649 212.346 84.8554 212.346 85.6288C212.346 86.2759 212.496 86.8322 212.797 87.2978C213.106 87.7555 213.499 88.1383 213.977 88.446C214.456 88.7459 214.957 88.9945 215.482 89.1918C216.006 89.3812 216.488 89.535 216.928 89.6534L219.335 90.3163C219.952 90.482 220.639 90.7109 221.395 91.0028C222.158 91.2948 222.887 91.6933 223.582 92.1984C224.284 92.6955 224.862 93.3348 225.317 94.116C225.772 94.8973 226 95.8561 226 96.9924C226 98.3024 225.664 99.4861 224.993 100.544C224.33 101.601 223.358 102.441 222.077 103.065C220.804 103.688 219.258 104 217.437 104C215.74 104 214.271 103.72 213.029 103.16C211.794 102.599 210.822 101.818 210.113 100.816C209.411 99.8136 209.013 98.6496 208.921 97.3239H211.883C211.96 98.2393 212.261 98.9968 212.786 99.5966C213.318 100.188 213.989 100.63 214.799 100.922C215.617 101.206 216.496 101.348 217.437 101.348C218.533 101.348 219.516 101.167 220.388 100.804C221.26 100.433 221.95 99.9201 222.459 99.2652C222.968 98.6023 223.223 97.8289 223.223 96.9451C223.223 96.1402 223.003 95.4852 222.563 94.9801C222.124 94.4751 221.545 94.0647 220.828 93.7491C220.11 93.4334 219.335 93.1572 218.502 92.9205L215.586 92.0682C213.734 91.5237 212.269 90.7464 211.189 89.7363C210.109 88.7262 209.569 87.4044 209.569 85.7708C209.569 84.4135 209.927 83.2298 210.645 82.2197C211.37 81.2017 212.342 80.4126 213.561 79.8523C214.787 79.2841 216.157 79 217.669 79C219.196 79 220.554 79.2801 221.742 79.8404C222.93 80.3928 223.871 81.1504 224.565 82.1132C225.267 83.0759 225.637 84.1689 225.676 85.392H222.899Z" fill="#8D64FF"/>
    <path d="M207.854 104.182C207.836 104.13 207.816 104.078 207.796 104.026C207.791 104.013 207.783 104.003 207.777 103.99C207.69 103.777 207.587 103.577 207.482 103.404C207.479 103.399 207.477 103.392 207.473 103.387C207.468 103.378 207.463 103.371 207.458 103.363C207.442 103.336 207.426 103.312 207.409 103.287C207.395 103.266 207.381 103.243 207.368 103.223C207.366 103.221 207.365 103.219 207.363 103.217C207.339 103.181 207.314 103.148 207.291 103.117C207.276 103.097 207.261 103.078 207.245 103.059V103.059C207.245 103.059 207.245 103.059 207.245 103.058C207.187 102.987 207.126 102.918 207.063 102.852C207.038 102.824 207.012 102.797 206.985 102.771C206.955 102.74 206.923 102.71 206.892 102.681C206.815 102.608 206.735 102.538 206.654 102.47C206.735 102.519 206.816 102.566 206.897 102.615C206.872 102.6 206.841 102.581 206.814 102.565C206.76 102.533 206.708 102.501 206.649 102.466C206.419 102.279 206.173 102.112 205.918 101.96C205.803 101.891 205.686 101.826 205.568 101.762C205.547 101.751 205.527 101.74 205.507 101.729C205.387 101.666 205.266 101.604 205.146 101.545C205.145 101.545 205.145 101.544 205.145 101.544C205.065 101.505 204.985 101.467 204.905 101.428C204.816 101.385 204.727 101.342 204.638 101.299C204.362 101.141 204.108 100.996 203.872 100.861C203.446 100.618 203.103 100.423 202.968 100.347C202.939 100.325 202.909 100.305 202.88 100.283C202.88 100.283 202.879 100.284 202.878 100.284C202.876 100.282 202.868 100.273 202.865 100.27C202.566 99.9432 200.068 97.2131 198.372 95.227C198.356 95.2442 198.333 95.2541 198.317 95.2709C197.462 94.3118 196.8 93.5472 196.708 93.3771C196.581 92.7909 196.513 92.1338 196.481 91.4819L196.87 91.469C196.87 91.469 199.76 67.8948 200.39 62H192.443C189.066 73.5692 191.627 91.6413 191.627 91.6413L192.286 91.6197C192.277 92.6137 192.202 93.6605 192.003 94.6109C191.929 94.709 191.842 94.8179 191.758 94.9233C191.758 94.9231 191.758 94.9229 191.758 94.9228C191.758 94.9232 191.756 94.926 191.756 94.9267C191.656 95.0531 191.57 95.1868 191.475 95.3258C191.462 95.3423 191.444 95.3656 191.44 95.3714C191.223 95.7022 190.946 95.9872 190.752 96.3338C190.719 96.3921 190.687 96.4542 190.657 96.519C190.639 96.556 190.624 96.5992 190.608 96.6381C190.582 96.6982 190.557 96.7578 190.532 96.8213C190.523 96.8472 190.511 96.87 190.502 96.8964C190.478 96.961 190.457 97.0281 190.435 97.0946C190.424 97.127 190.413 97.1575 190.403 97.1902C190.401 97.1938 190.4 97.1972 190.399 97.2007C190.355 97.3406 190.315 97.4822 190.279 97.6214C190.259 97.6971 190.24 97.7723 190.223 97.8458C190.214 97.8814 190.21 97.9099 190.201 97.9445C190.175 98.0597 190.153 98.1644 190.132 98.2666C190.123 98.3127 190.114 98.3567 190.105 98.3996C190.08 98.532 190.059 98.6505 190.046 98.7383C190.019 98.9134 189.999 99.0928 190 99.2701V99.2702C190 99.3144 190.002 99.3587 190.005 99.4026C190.014 99.5346 190.037 99.6645 190.08 99.7895C190.125 99.9191 190.188 100.037 190.265 100.145C190.303 100.199 190.345 100.25 190.39 100.299C190.41 100.321 190.437 100.337 190.459 100.359C190.535 100.435 190.617 100.505 190.704 100.57C190.742 100.598 190.776 100.628 190.815 100.654C190.94 100.739 191.069 100.817 191.199 100.886C191.2 100.886 191.201 100.887 191.203 100.888C191.68 101.141 192.177 101.347 192.677 101.547C192.928 101.647 193.178 101.745 193.428 101.847C193.677 101.949 193.925 102.054 194.169 102.169C194.172 102.171 194.175 102.172 194.179 102.174C194.612 102.377 195.044 102.599 195.476 102.826C195.825 103.009 196.175 103.196 196.526 103.383C196.533 103.387 196.541 103.39 196.549 103.394C197.103 103.689 197.66 103.981 198.226 104.249C198.228 104.249 198.23 104.251 198.232 104.252C198.693 104.469 199.159 104.671 199.633 104.844C199.764 104.893 199.896 104.938 200.028 104.98C200.16 105.022 200.293 105.062 200.426 105.1C200.683 105.172 200.942 105.234 201.203 105.29C201.206 105.291 201.21 105.292 201.213 105.292C201.236 105.297 201.26 105.302 201.284 105.307C201.401 105.331 201.518 105.355 201.636 105.377C201.688 105.387 201.741 105.392 201.794 105.402C202.687 105.559 203.593 105.654 204.497 105.755C205.051 105.816 205.604 105.881 206.153 105.967C206.325 105.994 206.526 106.006 206.732 105.997C206.742 105.997 206.751 105.999 206.762 105.999C206.777 105.998 206.79 105.994 206.805 105.993C206.893 105.987 206.98 105.975 207.067 105.958C207.088 105.954 207.108 105.953 207.128 105.948C207.23 105.925 207.328 105.891 207.421 105.849C207.445 105.839 207.465 105.825 207.488 105.813C207.557 105.776 207.621 105.732 207.68 105.682C207.702 105.663 207.724 105.644 207.744 105.623C207.815 105.55 207.877 105.468 207.921 105.367C207.956 105.285 207.979 105.196 207.99 105.102C207.991 105.099 207.991 105.096 207.991 105.093C208.002 105.002 208.003 104.906 207.995 104.809C207.987 104.707 207.97 104.603 207.946 104.498C207.921 104.393 207.89 104.287 207.854 104.182Z" fill="url(#paint0_linear_606_1319)"/>
    <path d="M157.894 98.3975C157.886 98.3567 157.877 98.3144 157.868 98.2705C157.848 98.1668 157.825 98.0603 157.798 97.9435C157.79 97.909 157.785 97.881 157.777 97.8458C157.76 97.7737 157.742 97.7002 157.722 97.6259C157.719 97.6137 157.715 97.6014 157.712 97.589C157.678 97.4603 157.641 97.3298 157.601 97.2007C157.6 97.1972 157.598 97.1938 157.597 97.1903C157.587 97.157 157.575 97.1259 157.564 97.093C157.543 97.0271 157.521 96.9606 157.498 96.8964C157.489 96.8708 157.477 96.8484 157.468 96.8231C157.443 96.7586 157.418 96.6981 157.392 96.637C157.375 96.5984 157.36 96.5557 157.343 96.519C157.313 96.4542 157.281 96.3921 157.248 96.3338C157.054 95.9872 156.777 95.7022 156.559 95.3714C156.555 95.3656 156.537 95.3423 156.525 95.3258C156.43 95.1867 156.344 95.053 156.244 94.9265C156.244 94.926 156.242 94.9232 156.242 94.9228C156.242 94.9229 156.241 94.9231 156.241 94.9233C156.158 94.8179 156.071 94.709 155.997 94.6109C155.798 93.6605 155.723 92.6137 155.714 91.6197L156.373 91.6414C156.373 91.6414 158.934 73.5692 155.557 62H147.61C148.239 67.8948 151.13 91.469 151.13 91.469L151.518 91.4819C151.487 92.1338 151.419 92.7909 151.292 93.3771C151.2 93.5472 150.538 94.3118 149.683 95.271C149.666 95.2541 149.644 95.2442 149.628 95.227C147.931 97.2131 145.434 99.9432 145.135 100.27C145.132 100.273 145.124 100.282 145.121 100.284C145.121 100.284 145.12 100.283 145.12 100.283C145.091 100.305 145.061 100.325 145.032 100.347C144.912 100.415 144.627 100.577 144.268 100.781C143.999 100.935 143.693 101.109 143.362 101.299C143.193 101.381 143.023 101.461 142.855 101.544C142.734 101.604 142.613 101.666 142.493 101.729C142.473 101.74 142.453 101.751 142.432 101.762C142.314 101.826 142.197 101.891 142.083 101.959C141.827 102.112 141.581 102.278 141.351 102.466C141.262 102.519 141.178 102.569 141.103 102.615C141.184 102.566 141.265 102.519 141.346 102.47C141.264 102.538 141.185 102.608 141.108 102.681C141.077 102.71 141.045 102.74 141.015 102.771C140.988 102.797 140.962 102.824 140.937 102.852C140.874 102.918 140.813 102.987 140.755 103.058C140.755 103.059 140.755 103.059 140.755 103.059C140.755 103.059 140.755 103.059 140.755 103.059C140.739 103.078 140.724 103.098 140.709 103.117C140.685 103.148 140.661 103.181 140.637 103.217C140.635 103.219 140.634 103.221 140.632 103.223C140.618 103.243 140.604 103.267 140.59 103.289C140.574 103.313 140.558 103.336 140.542 103.362C140.537 103.371 140.532 103.378 140.526 103.387C140.523 103.392 140.52 103.4 140.517 103.405C140.412 103.578 140.31 103.777 140.222 103.99C140.217 104.003 140.209 104.013 140.204 104.026C140.183 104.078 140.164 104.13 140.146 104.182C140.109 104.287 140.079 104.393 140.054 104.498C140.03 104.603 140.013 104.707 140.005 104.809C139.997 104.906 139.998 105.002 140.009 105.093C140.009 105.096 140.009 105.099 140.009 105.102C140.021 105.196 140.044 105.285 140.079 105.367C140.123 105.468 140.185 105.55 140.256 105.623C140.276 105.644 140.298 105.663 140.32 105.682C140.378 105.732 140.442 105.776 140.512 105.813C140.535 105.825 140.555 105.839 140.579 105.849C140.671 105.892 140.77 105.925 140.872 105.948C140.892 105.953 140.912 105.954 140.932 105.958C141.019 105.975 141.107 105.987 141.195 105.993C141.21 105.994 141.224 105.998 141.238 105.999C141.249 105.999 141.257 105.997 141.268 105.997C141.474 106.006 141.675 105.994 141.847 105.967C142.396 105.881 142.949 105.816 143.503 105.755C144.407 105.654 145.312 105.559 146.206 105.402C146.258 105.392 146.312 105.387 146.364 105.377C146.481 105.355 146.598 105.331 146.715 105.307C146.739 105.302 146.763 105.297 146.787 105.292C146.79 105.292 146.794 105.291 146.797 105.29C147.049 105.236 147.3 105.175 147.549 105.106C147.557 105.103 147.566 105.102 147.575 105.099C147.708 105.062 147.84 105.022 147.972 104.98C148.104 104.938 148.236 104.893 148.367 104.844C148.64 104.744 148.905 104.619 149.172 104.503C149.945 104.169 150.703 103.792 151.451 103.394C151.459 103.39 151.466 103.387 151.474 103.383C151.825 103.196 152.174 103.01 152.522 102.827C152.958 102.597 153.394 102.374 153.831 102.169C154.075 102.054 154.323 101.949 154.572 101.847C154.821 101.745 155.072 101.647 155.322 101.547C155.822 101.347 156.32 101.141 156.797 100.888C156.798 100.887 156.799 100.886 156.8 100.886C156.931 100.817 157.06 100.739 157.185 100.654C157.224 100.628 157.258 100.598 157.296 100.57C157.383 100.505 157.464 100.435 157.541 100.359C157.562 100.337 157.589 100.322 157.61 100.299C157.655 100.25 157.697 100.199 157.735 100.145C157.812 100.037 157.875 99.9191 157.92 99.7895C157.963 99.6645 157.986 99.5346 157.995 99.4026C157.998 99.3587 157.999 99.3144 158 99.2702C158.001 99.0928 157.981 98.9133 157.954 98.7384C157.94 98.6501 157.919 98.5308 157.894 98.3975Z" fill="url(#paint1_linear_606_1319)"/>
    <path d="M351.861 261.337L360.965 167.077C361.384 162.747 357.973 159 353.614 159H257.385C253.097 159 249.71 162.633 250.02 166.901L256.848 261.161C257.127 265.015 260.342 268 264.214 268H344.51C348.314 268 351.496 265.116 351.861 261.337Z" fill="#FF3D44"/>
    <path d="M265.863 261.161L259.247 166.901C258.947 162.633 262.229 159 266.384 159H257.156C253.001 159 249.719 162.633 250.019 166.901L256.635 261.161C256.906 265.015 260.021 268 263.772 268H273C269.248 268 266.133 265.015 265.863 261.161Z" fill="url(#paint2_linear_606_1319)"/>
    <path d="M354.418 201.868C354.385 201.916 354.345 201.958 354.31 202.004C354.085 201.823 353.871 201.647 353.687 201.487C353.63 201.438 353.573 201.384 353.516 201.331C353.336 200.183 353.245 198.999 353.201 197.969L353.673 197.868C353.673 197.868 352.865 163.616 352.591 158.178H349.445C348.86 156.57 347.315 155.266 344.216 154.465C335.991 152.339 316 158.193 316 158.193C316 158.193 317.644 165.332 320.17 168.528C320.062 169.437 319.984 170.354 319.908 171.257C319.289 178.616 319.933 186.081 320.995 193.368C321.53 197.037 322.155 200.716 323.019 204.323L323.812 204.205C323.857 205.078 323.859 205.932 323.772 206.606C323.748 206.793 323.343 207.458 323.319 207.496C323.229 207.636 323.136 207.774 323.046 207.915C322.978 207.87 322.905 207.828 322.841 207.781C322.865 207.821 322.534 208.305 322.504 208.36C322.278 208.784 321.971 209.163 321.775 209.603C321.742 209.677 321.71 209.756 321.681 209.837C321.627 209.985 321.58 210.145 321.538 210.309C321.506 210.433 321.476 210.558 321.45 210.686C321.413 210.859 321.381 211.034 321.355 211.205C321.34 211.298 321.327 211.39 321.314 211.48C321.254 211.931 321.222 212.331 321.21 212.57C321.2 212.783 321.198 212.999 321.222 213.211C321.228 213.264 321.236 213.316 321.245 213.368C321.274 213.525 321.319 213.676 321.389 213.82C321.461 213.968 321.554 214.1 321.664 214.218C321.719 214.277 321.777 214.333 321.839 214.385C322.149 214.648 322.541 214.831 322.923 214.976C323.548 215.212 324.472 215.409 325.119 215.578C325.442 215.663 325.766 215.746 326.088 215.833C326.41 215.921 326.731 216.013 327.049 216.116C327.618 216.3 328.188 216.507 328.759 216.721C329.215 216.891 329.671 217.066 330.129 217.24C330.138 217.243 330.147 217.246 330.156 217.249C330.883 217.525 331.612 217.797 332.35 218.038C332.353 218.039 332.355 218.04 332.358 218.041C332.958 218.238 333.562 218.414 334.172 218.556C334.342 218.595 334.51 218.631 334.68 218.663C334.849 218.696 335.018 218.725 335.187 218.751C335.219 218.756 335.251 218.758 335.283 218.763C335.581 218.807 335.878 218.844 336.177 218.872C336.181 218.872 336.185 218.872 336.19 218.873C336.22 218.876 336.251 218.878 336.282 218.88C336.43 218.893 336.577 218.906 336.726 218.916C336.792 218.92 336.859 218.919 336.925 218.923C338.063 218.989 339.208 218.977 340.351 218.972C341.037 218.97 341.722 218.971 342.405 218.998C342.508 219.002 342.62 219 342.736 218.995C342.771 218.993 342.806 218.989 342.841 218.987C342.925 218.98 343.009 218.971 343.095 218.959C343.119 218.956 343.141 218.955 343.164 218.952C343.182 218.949 343.199 218.942 343.217 218.939C343.326 218.919 343.433 218.893 343.539 218.861C343.563 218.854 343.587 218.849 343.611 218.841C343.736 218.799 343.853 218.745 343.963 218.682C343.991 218.666 344.014 218.647 344.04 218.63C344.122 218.576 344.196 218.515 344.262 218.446C344.287 218.421 344.312 218.396 344.334 218.368C344.412 218.271 344.479 218.165 344.52 218.039C344.553 217.936 344.57 217.826 344.572 217.713V217.713C344.572 217.709 344.572 217.705 344.572 217.701C344.573 217.591 344.562 217.477 344.54 217.361C344.516 217.241 344.482 217.119 344.438 216.997C344.395 216.875 344.342 216.753 344.284 216.633C344.255 216.573 344.224 216.514 344.192 216.456C344.176 216.428 344.159 216.403 344.143 216.376C344.099 216.299 344.054 216.226 344.006 216.153C343.978 216.11 343.952 216.068 343.924 216.027C343.866 215.944 343.808 215.866 343.75 215.792C343.736 215.774 343.723 215.754 343.709 215.737C343.702 215.728 343.695 215.721 343.688 215.712C343.663 215.681 343.639 215.653 343.614 215.624C343.595 215.602 343.575 215.577 343.557 215.556C343.555 215.554 343.553 215.551 343.551 215.549C343.515 215.51 343.481 215.474 343.448 215.44C343.426 215.419 343.405 215.398 343.384 215.377C343.383 215.376 343.383 215.376 343.383 215.376C343.302 215.298 343.217 215.225 343.131 215.155C343.096 215.125 343.06 215.097 343.024 215.069C342.982 215.036 342.939 215.005 342.896 214.974C342.792 214.898 342.684 214.825 342.574 214.756C342.681 214.802 342.788 214.847 342.894 214.895C342.794 214.851 342.684 214.802 342.567 214.751C342.357 214.621 342.131 214.517 341.907 214.409C341.803 214.359 341.707 214.296 341.601 214.25C341.601 214.25 341.601 214.25 341.6 214.25C341.447 214.183 341.291 214.12 341.135 214.06C341.108 214.05 341.082 214.04 341.055 214.03C340.898 213.97 340.74 213.913 340.582 213.858C340.363 213.783 340.143 213.71 339.922 213.636C339.907 213.629 339.892 213.623 339.877 213.617C339.206 213.338 338.593 213.085 338.177 212.914C338.068 212.87 337.972 212.83 337.894 212.798C337.827 212.77 337.768 212.746 337.727 212.73C337.705 212.717 337.683 212.705 337.661 212.693C337.645 212.683 337.627 212.675 337.608 212.667C337.264 212.377 333.754 209.414 331.364 207.253C331.329 207.298 331.286 207.337 331.248 207.381C331.036 207.184 330.834 206.994 330.662 206.822C330.608 206.768 330.555 206.711 330.502 206.654C330.399 205.475 330.391 204.266 330.419 203.222L331.117 203.119C331.117 203.119 332.368 183.552 333.028 171.529C335.623 171.576 338.274 171.442 340.583 171.05C341.18 184.911 345.665 199.58 345.665 199.58L346.675 199.364C346.779 200.229 346.839 201.079 346.799 201.756C346.788 201.945 346.43 202.636 346.408 202.675C346.328 202.821 346.245 202.966 346.164 203.112C346.093 203.072 346.018 203.036 345.95 202.993C345.978 203.032 345.68 203.538 345.655 203.595C345.458 204.034 345.178 204.433 345.012 204.886C344.984 204.962 344.958 205.043 344.934 205.126C344.891 205.277 344.855 205.44 344.824 205.607C344.8 205.732 344.779 205.86 344.761 205.989C344.737 206.164 344.718 206.341 344.702 206.513C344.694 206.607 344.687 206.7 344.681 206.791C344.651 207.245 344.648 207.646 344.652 207.885C344.656 208.098 344.669 208.314 344.708 208.524C344.717 208.576 344.729 208.628 344.742 208.679C344.781 208.833 344.837 208.981 344.916 209.119C344.998 209.263 345.1 209.388 345.217 209.498C345.276 209.553 345.338 209.604 345.404 209.652C345.731 209.892 346.134 210.047 346.525 210.165C347.165 210.357 348.101 210.489 348.757 210.612C349.413 210.736 350.072 210.852 350.719 211.013C351.299 211.157 351.881 211.323 352.464 211.495C352.931 211.634 353.399 211.776 353.869 211.917C353.88 211.921 353.89 211.923 353.9 211.926C354.646 212.151 355.394 212.371 356.148 212.561C356.155 212.563 356.163 212.564 356.17 212.566L357 203.849C356.117 203.183 355.21 202.49 354.418 201.868Z" fill="url(#paint3_linear_606_1319)"/>
    <path d="M270.71 183.771L252 196.074L252.777 207L275.842 191.832C278.032 190.392 278.659 187.42 277.242 185.193C275.824 182.967 272.9 182.33 270.71 183.771Z" fill="url(#paint4_linear_606_1319)"/>
    <path d="M270.545 249.756L256 258.929L256.133 260.714C256.349 263.632 258.316 266.038 260.986 267L275.793 257.661C278.033 256.249 278.674 253.334 277.224 251.151C275.775 248.968 272.785 248.343 270.545 249.756Z" fill="url(#paint5_linear_606_1319)"/>
    <path d="M350.021 137C350.017 137.009 348.167 136.228 346.766 134.991C344.162 132.692 341.975 129.787 340.11 126.866C338.581 124.469 337.25 121.937 336.137 119.295C335.166 116.988 331.459 109.472 336.896 109.012C338.251 108.898 339.417 109.608 340.284 110.45C344.186 114.24 353 130.568 353 130.568L350.021 137Z" fill="white"/>
    <path d="M372.199 116.443L379.976 113.511C379.976 113.511 380.162 114.88 379.491 115.546C378.819 116.213 378.758 117.028 378.238 117.703C377.717 118.377 377.194 120.509 376.083 121.38C374.972 122.251 372.92 121.71 371.803 122.465C370.685 123.221 368.419 125 368.419 125L366 120.6L369.183 118.373C369.183 118.373 370.72 114.038 373.799 113L372.199 116.443Z" fill="url(#paint6_linear_606_1319)"/>
    <path d="M349.658 136.98C349.658 136.98 346.121 131.865 349.38 129.173C352.639 126.481 367.872 119 367.872 119L370 123.686C370 123.686 354.39 137.596 349.658 136.98Z" fill="url(#paint7_linear_606_1319)"/>
    <path d="M380.742 202.097C380.72 202.078 380.697 202.059 380.675 202.04C380.416 201.822 380.134 201.641 379.838 201.482C379.946 201.521 380.054 201.558 380.162 201.597C380.061 201.561 379.949 201.521 379.831 201.478C379.203 201.143 378.511 200.92 377.823 200.734C377.603 200.675 377.382 200.617 377.161 200.56C376.135 200.214 375.223 199.91 374.945 199.817C374.906 199.798 374.865 199.781 374.824 199.764C374.373 199.432 369.607 196.213 367.613 194.471C367.557 194.421 367.501 194.368 367.445 194.315C366.974 191.3 367.121 188.031 367.121 188.031L359.932 188C359.932 188 360.974 192.398 360.837 194.737C360.826 194.923 360.474 195.608 360.453 195.647C360.365 195.807 360.274 195.964 360.188 196.125C360.099 196.289 360.012 196.455 359.938 196.627C359.711 197.154 359.413 197.668 359.247 198.227C359.064 198.845 359.031 199.519 359.009 200.161C359.001 200.377 358.998 200.592 359.002 200.808C359.009 201.229 359.054 201.665 359.261 202.03C359.583 202.598 360.228 202.879 360.845 203.066C362.103 203.447 363.419 203.587 364.694 203.906C367.04 204.493 369.415 205.429 371.849 205.822C374.543 206.256 377.256 205.772 379.959 205.686C380.673 205.663 381.766 205.413 381.969 204.591C382.175 203.759 381.303 202.595 380.742 202.097Z" fill="url(#paint8_linear_606_1319)"/>
    <path d="M381.997 204.277C381.991 204.17 381.973 204.06 381.944 203.949C381.913 203.833 381.872 203.717 381.821 203.601C381.771 203.485 381.712 203.37 381.647 203.257C381.615 203.2 381.581 203.145 381.546 203.09C381.387 202.841 381.205 202.612 381.03 202.422C380.976 202.363 380.922 202.307 380.87 202.257C380.868 202.255 380.866 202.252 380.864 202.25C380.827 202.215 380.791 202.181 380.757 202.151C380.735 202.132 380.713 202.113 380.69 202.093C380.606 202.023 380.519 201.958 380.431 201.895C380.395 201.869 380.358 201.843 380.321 201.818C380.279 201.789 380.235 201.762 380.191 201.735C380.084 201.667 379.975 201.604 379.864 201.544C379.97 201.582 380.077 201.619 380.184 201.657C380.084 201.621 379.974 201.582 379.857 201.54C379.547 201.375 379.221 201.237 378.886 201.118C378.733 201.063 378.578 201.013 378.423 200.965C378.396 200.957 378.37 200.949 378.343 200.941C378.186 200.894 378.03 200.848 377.873 200.806C377.655 200.747 377.436 200.691 377.218 200.634C376.205 200.293 375.304 199.993 375.029 199.902C375.007 199.891 374.985 199.881 374.963 199.871C374.946 199.862 374.928 199.855 374.91 199.849C374.556 199.59 370.955 196.943 368.494 195C366.963 197.283 362.604 197.587 360.263 196.099C360.29 196.137 360.001 196.631 359.976 196.687C359.785 197.116 359.513 197.506 359.351 197.949C359.324 198.023 359.299 198.102 359.276 198.183C359.234 198.331 359.199 198.49 359.168 198.653C359.145 198.775 359.125 198.9 359.108 199.026C359.084 199.198 359.065 199.37 359.05 199.539C359.043 199.63 359.036 199.721 359.03 199.81C359.001 200.253 358.997 200.646 359.001 200.879C359.005 201.087 359.018 201.298 359.056 201.503C359.065 201.554 359.076 201.605 359.089 201.655C359.127 201.805 359.181 201.95 359.258 202.085C359.337 202.224 359.437 202.347 359.551 202.454C359.608 202.508 359.669 202.558 359.732 202.605C360.05 202.839 360.442 202.991 360.822 203.106C361.444 203.294 362.354 203.422 362.992 203.543C363.311 203.603 363.63 203.662 363.949 203.725C364.267 203.788 364.585 203.856 364.899 203.934C365.914 204.188 366.934 204.507 367.961 204.818C368.695 205.041 369.434 205.259 370.176 205.447C370.771 205.597 371.368 205.727 371.97 205.824C372.136 205.851 372.303 205.874 372.469 205.894C372.636 205.914 372.802 205.931 372.969 205.945C373.291 205.971 373.613 205.987 373.935 205.994C374.113 205.999 374.292 206.001 374.47 206C374.971 205.998 375.472 205.978 375.973 205.949C377.31 205.873 378.648 205.733 379.983 205.69C380.203 205.683 380.461 205.654 380.716 205.593C381.278 205.458 381.832 205.168 381.97 204.61C381.995 204.508 382.004 204.4 381.999 204.289C381.998 204.285 381.997 204.281 381.997 204.277ZM377.182 200.625C377.006 200.579 376.83 200.532 376.655 200.484C376.639 200.48 376.624 200.475 376.609 200.471C376.069 200.319 375.537 200.146 375.032 199.903C375.032 199.903 375.032 199.903 375.031 199.903C375.749 200.141 376.465 200.383 377.182 200.625Z" fill="url(#paint9_linear_606_1319)"/>
    <path d="M356.88 208.484C356.859 208.463 356.837 208.443 356.816 208.422C356.569 208.187 356.297 207.987 356.009 207.809C356.115 207.855 356.222 207.899 356.328 207.946C356.229 207.903 356.119 207.855 356.002 207.805C355.391 207.427 354.707 207.157 354.025 206.923C353.807 206.848 353.587 206.776 353.368 206.703C352.356 206.286 351.456 205.92 351.181 205.808C351.142 205.787 351.103 205.767 351.063 205.747C350.629 205.385 346.037 201.849 344.143 199.975C344.089 199.922 344.036 199.866 343.983 199.809C343.716 196.777 344.089 193.537 344.089 193.537L336.83 193C336.83 193 337.579 197.446 337.279 199.763C337.255 199.947 336.852 200.604 336.828 200.641C336.729 200.793 336.626 200.944 336.528 201.097C336.427 201.255 336.328 201.413 336.241 201.579C335.976 202.087 335.639 202.577 335.433 203.121C335.206 203.723 335.126 204.391 335.059 205.028C335.037 205.241 335.018 205.456 335.007 205.67C334.986 206.09 335.001 206.527 335.185 206.904C335.471 207.491 336.104 207.817 336.714 208.046C337.958 208.513 339.278 208.745 340.544 209.152C342.874 209.901 345.208 210.999 347.64 211.561C350.331 212.182 353.105 211.892 355.841 211.997C356.564 212.025 357.686 211.853 357.948 211.05C358.212 210.238 357.412 209.018 356.88 208.484Z" fill="url(#paint10_linear_606_1319)"/>
    <path d="M358 210.672C358.001 210.56 357.99 210.444 357.968 210.326C357.945 210.203 357.911 210.078 357.868 209.954C357.826 209.829 357.774 209.704 357.716 209.582C357.688 209.521 357.657 209.46 357.626 209.4C357.482 209.129 357.314 208.877 357.151 208.666C357.1 208.601 357.05 208.538 357.001 208.482C356.999 208.479 356.997 208.477 356.995 208.474C356.96 208.435 356.926 208.397 356.894 208.363C356.873 208.341 356.852 208.32 356.83 208.298C356.75 208.218 356.667 208.144 356.582 208.072C356.547 208.042 356.512 208.012 356.476 207.984C356.435 207.951 356.393 207.919 356.351 207.887C356.248 207.809 356.142 207.735 356.033 207.664C356.138 207.711 356.244 207.758 356.349 207.806C356.25 207.761 356.142 207.712 356.026 207.66C355.725 207.465 355.406 207.296 355.075 207.147C354.924 207.079 354.771 207.015 354.617 206.954C354.591 206.943 354.565 206.933 354.539 206.922C354.384 206.862 354.228 206.803 354.073 206.748C353.857 206.67 353.641 206.595 353.424 206.52C352.424 206.089 351.534 205.71 351.263 205.594C351.242 205.582 351.22 205.569 351.198 205.557C351.182 205.547 351.165 205.538 351.146 205.531C350.807 205.234 347.352 202.208 345.001 200C343.297 202.269 338.873 202.264 336.611 200.54C336.636 200.581 336.31 201.075 336.281 201.131C336.058 201.565 335.756 201.951 335.563 202.401C335.53 202.477 335.499 202.557 335.47 202.64C335.418 202.791 335.372 202.954 335.329 203.122C335.298 203.248 335.269 203.377 335.243 203.507C335.207 203.684 335.176 203.863 335.149 204.037C335.135 204.133 335.122 204.226 335.11 204.318C335.05 204.779 335.019 205.188 335.007 205.431C334.997 205.649 334.995 205.87 335.019 206.086C335.025 206.14 335.033 206.194 335.042 206.247C335.07 206.407 335.115 206.562 335.183 206.708C335.254 206.86 335.346 206.995 335.453 207.115C335.507 207.175 335.565 207.232 335.626 207.286C335.931 207.554 336.316 207.741 336.693 207.889C337.308 208.131 338.218 208.332 338.854 208.505C339.172 208.591 339.49 208.676 339.808 208.765C340.125 208.854 340.441 208.948 340.754 209.053C341.761 209.392 342.769 209.801 343.785 210.201C344.511 210.488 345.242 210.77 345.979 211.02C346.569 211.221 347.164 211.401 347.764 211.546C347.931 211.586 348.097 211.623 348.264 211.656C348.431 211.689 348.598 211.719 348.765 211.745C349.089 211.797 349.413 211.837 349.738 211.868C349.918 211.886 350.097 211.901 350.278 211.913C350.784 211.948 351.291 211.965 351.8 211.972C353.155 211.991 354.516 211.943 355.867 211.997C356.091 212.006 356.352 211.995 356.615 211.95C357.192 211.851 357.771 211.588 357.949 211.017C357.981 210.912 357.998 210.801 358 210.685C358 210.681 358 210.676 358 210.672ZM353.388 206.508C353.213 206.447 353.039 206.385 352.865 206.321C352.85 206.316 352.835 206.31 352.82 206.305C352.285 206.107 351.759 205.887 351.266 205.596C351.266 205.596 351.266 205.596 351.266 205.596C351.974 205.897 352.681 206.203 353.388 206.508Z" fill="url(#paint11_linear_606_1319)"/>
    <path d="M364.911 147.655C357.852 145.359 350.295 144.592 342.917 144.013C339.253 143.726 334.984 143.091 331.315 142.794C323.204 142.136 316.914 139.841 318.157 148.117C318.61 151.129 319.258 154.421 321.1 157.006C323.096 159.808 328.305 155.086 331.614 155.651C335.35 156.29 337.467 162.127 341.241 161.998C344.552 161.884 347.895 161.577 351.123 160.817C355.19 159.86 359.247 158.816 363.245 157.609C368.245 152.624 364.911 147.655 364.911 147.655Z" fill="#253C6B"/>
    <path d="M364.836 147.474C364.836 147.474 366.558 147.262 366.833 151.613C367.107 155.964 368 191.302 368 191.302L359.481 193C359.481 193 351.24 167.879 354.968 152.457C354.968 152.457 358.327 145.093 364.836 147.474Z" fill="#253C6B"/>
    <path d="M346.025 152.248C345.973 152.192 345.919 152.137 345.863 152.083C344.639 150.919 331.968 145.016 320.515 144.166C318.6 144.024 316.632 143.55 315.33 145.304C314.304 146.687 314.061 148.597 314.012 150.294C313.956 152.218 314.078 154.19 314.792 155.964C315.183 156.933 315.746 157.807 316.415 158.592C318.724 158.651 321.427 158.811 322.987 159.22C326.102 160.038 332.966 161.128 336.182 160.674C339.146 160.255 339.429 158.786 339.499 163C342.682 162.185 344.924 161.703 346.438 157.839C347.126 156.082 347.384 153.742 346.025 152.248Z" fill="#394F8E"/>
    <path d="M317.753 108.394C319.71 105.003 323.307 103.853 326.966 104.015C328.963 104.103 330.94 104.514 332.865 105.048C334.725 105.565 337.139 106.011 338.573 107.406C340.329 109.114 340.682 111.665 340.834 114.015C340.998 116.543 341.035 119.076 340.97 121.608C340.846 126.488 340.513 131.345 340.68 136.231C340.766 138.758 340.861 141.721 338.216 142.926C336.835 143.556 335.253 143.593 333.767 143.676C331.322 143.814 328.851 144.056 326.448 144.55C324.185 145.014 322.006 145.945 319.673 145.998C317.7 146.044 316.038 145.078 316.001 142.914C315.963 140.695 317.193 138.041 317.54 135.814C318.201 131.564 318.388 127.117 317.583 122.875C316.691 118.169 315.179 112.854 317.753 108.394Z" fill="url(#paint12_linear_606_1319)"/>
    <path d="M341.795 111.374C341.569 108.201 334.727 104.048 332.968 103.792L332.922 109.788C332.922 109.788 324.172 103.013 324.167 103.006C324.077 102.889 320.899 104.441 320.509 104.619C312.33 108.345 314.169 119.455 314.193 126.802C314.205 130.412 314.216 134.022 314.228 137.632C314.234 139.481 314.312 141.347 314.245 143.194C314.185 144.85 314.627 145.606 316.144 146.488C317.832 147.47 319.525 146.829 321.237 146.309C323.235 145.702 325.255 145.159 327.32 144.853C330.05 144.448 332.806 144.263 335.562 144.183C337.891 144.116 339.891 144.359 340.846 141.707C341.236 140.626 341.278 139.448 341.255 138.295C341.043 128.004 342.528 121.673 341.795 111.374Z" fill="white"/>
    <path d="M335 108L333.415 114L331 108.138L332.573 108.084L333.227 109.626L333.207 108.062L335 108Z" fill="url(#paint13_linear_606_1319)"/>
    <path d="M333.651 112H332.506L331 136.154L334.219 139L337 135.815L333.651 112Z" fill="url(#paint14_linear_606_1319)"/>
    <path d="M330 96.6291L328.166 99H323L323.231 92.1701L329.013 92L330 96.6291Z" fill="url(#paint15_linear_606_1319)"/>
    <path d="M332.905 98.2256C332.925 99.3753 332.945 100.525 332.965 101.675C332.965 101.675 333.177 106.801 332.556 107.52C331.448 108.803 326 107.529 326 103.526V93L332.905 98.2256Z" fill="url(#paint16_linear_606_1319)"/>
    <path d="M375.664 98L378 113.078L361 121C361 121 369.357 103.958 375.664 98Z" fill="#FBC300"/>
    <path d="M325.528 142C325.52 142.007 324.125 140.457 323.338 138.657C321.875 135.312 321.055 131.561 320.543 127.931C320.123 124.953 319.944 121.929 320.015 118.894C320.077 116.243 319.775 107.372 325.033 109.262C326.343 109.733 327.133 110.921 327.588 112.109C329.633 117.455 331 137.051 331 137.051L325.528 142Z" fill="white"/>
    <path d="M349.229 113.986L359.862 97C359.862 97 373.582 107.858 378 113.273C378 113.273 366.606 126.906 358.583 143L339 133.069L349.229 113.986Z" fill="#FBC300"/>
    <path d="M357 106.476L371.09 118C371.428 117.513 371.731 117.082 372 116.704C369.483 114.006 360.362 106.94 357.839 105L357 106.476Z" fill="white"/>
    <path d="M355 110.384L369.09 121C369.404 120.558 369.709 120.134 370 119.735C367.224 117.106 358.441 110.833 355.854 109L355 110.384Z" fill="white"/>
    <path d="M353 113.4L367.101 124C367.406 123.549 367.706 123.107 368 122.683C365.086 119.986 356.523 113.879 353.866 112L353 113.4Z" fill="white"/>
    <path d="M351.613 115.311L351 116.461L365.119 127C365.415 126.538 365.709 126.089 366 125.647C363.029 122.936 354.556 116.931 351.807 115L351.613 115.311Z" fill="white"/>
    <path d="M349 119.5L363.145 130C363.43 129.529 363.715 129.064 364 128.606C361.087 125.954 352.841 120.125 349.804 118L349 119.5Z" fill="white"/>
    <path d="M347 123.518L361.186 134C361.456 133.522 361.727 133.047 362 132.579C359.241 130.035 351.131 124.311 347.818 122L347 123.518Z" fill="white"/>
    <path d="M345 126.526L359.247 137C359.495 136.522 359.746 136.046 360 135.574C357.527 133.21 349.411 127.492 345.826 125L345 126.526Z" fill="white"/>
    <path opacity="0.53" d="M347.23 117.313C346.954 118.548 346.937 119.498 346.937 119.498L346.088 120.579L345.803 120.292C345.657 120.472 345.516 120.637 345.371 120.814L339 132.81L343.278 135C346.99 129.551 349.972 124.484 349.972 124.484L349.813 124.324C350.292 123.666 350.806 122.974 351.18 122.515C352.091 121.392 354.457 121.188 355.321 119.956C356.185 118.725 355.974 116.486 356.282 115.652C356.591 114.818 356.363 114.012 356.835 113.133C357.306 112.253 356.619 111 356.619 111L349.437 116.574L349.896 112.691C349.813 112.751 349.74 112.821 349.661 112.885L349.11 113.775L347.23 117.313Z" fill="url(#paint17_linear_606_1319)"/>
    <path d="M348.957 114.397L356.841 110C356.841 110 357.288 111.402 356.682 112.214C356.075 113.026 356.156 113.89 355.714 114.685C355.273 115.48 355.09 117.801 354.045 118.902C353 120.003 350.684 119.787 349.611 120.769C348.538 121.751 346.407 124 346.407 124L343 119.807L346.042 116.932C346.042 116.932 346.926 112.132 350.069 110.52L348.957 114.397Z" fill="url(#paint18_linear_606_1319)"/>
    <path d="M325.874 142C325.874 142 320.922 136.896 324.019 133.339C327.116 129.781 334.309 126.189 344.702 117L348 121.865C348 121.865 331.266 141.881 325.874 142Z" fill="white"/>
    <path d="M345.413 152.447C345.651 152.573 345.867 152.724 346.049 152.904C346.993 153.839 347.003 155.585 347 156.8C346.988 161.156 344.651 196.806 344.651 196.806L336.412 198C335.532 194.423 334.896 190.774 334.352 187.135C333.271 179.907 332.616 172.503 333.246 165.204C333.64 160.638 334.065 155.711 338.498 153.197C340.215 152.225 343.597 151.49 345.413 152.447Z" fill="#394F8E"/>
    <path d="M333.036 110L336 108.133L333.221 102C333.221 102 332.894 109.883 333.036 110Z" fill="url(#paint19_linear_606_1319)"/>
    <path d="M333 102.435L335.158 108.268L339 109L333 102V102.435Z" fill="url(#paint20_linear_606_1319)"/>
    <path d="M323 103.52L327.809 111L332 107.726L325.105 102L323 103.52Z" fill="url(#paint21_linear_606_1319)"/>
    <path d="M332.024 108L333 110L331 108.84L332.024 108Z" fill="url(#paint22_linear_606_1319)"/>
    <path d="M328.405 85L327.591 88.7627L326.349 94.5025L326 96.1172C329.109 102.797 335.299 104.102 337.553 102.208C339.806 100.314 342 88.4064 342 88.4064L328.405 85Z" fill="url(#paint23_linear_606_1319)"/>
    <path d="M329 84.026L337 89L334.484 83L329 84.026Z" fill="#0A1123"/>
    <path d="M338.825 93L337 97.1723L340 98L338.825 93Z" fill="url(#paint24_linear_606_1319)"/>
    <path d="M331.595 83.5675L329.479 90.8566L328.478 87.8762L323.806 99C323.806 99 321.329 86.5977 325.061 82.2498L326.073 81.883C326.073 81.883 325.123 76.3603 333.481 78.4876C341.838 80.615 347.072 82.127 345.814 85.626C344.555 89.1249 343.082 90.951 343.082 90.951L331.595 83.5675Z" fill="#0A1123"/>
    <path d="M325.409 89.6162C324.471 91.0848 325.07 94.1164 328 95L327.86 89.6682C327.499 88.9389 326.027 88.6499 325.409 89.6162Z" fill="url(#paint25_linear_606_1319)"/>
    <path d="M274.189 258H253.15C240.558 258 229.912 248.593 228.387 236.118L225.183 209.911C224.319 202.84 226.538 195.725 231.27 190.392C236.001 185.059 242.809 182 249.947 182H274.189C276.846 182 279 184.149 279 186.801C279 189.453 276.846 191.602 274.189 191.602H249.947C245.562 191.602 241.38 193.481 238.473 196.758C235.566 200.034 234.204 204.405 234.734 208.748L237.938 234.956C238.875 242.619 245.415 248.398 253.15 248.398H274.189C276.846 248.398 279 250.547 279 253.199C279 255.851 276.846 258 274.189 258Z" fill="#FF3D44"/>
    <path d="M124.423 252.239C124.02 251.729 123.447 251.321 122.928 250.903C122.78 250.785 121.439 249.563 121.331 249.399C119.767 247.011 116.143 240 116.143 240L109.338 243.97C109.338 243.97 113.817 249.237 114.933 253.245L114.941 253.241C112.952 256.693 108.956 262.111 108.956 262.111C108.956 262.111 103.521 266.714 103.287 267.041C103.053 267.368 102.398 268.053 102 269.417C102 269.417 102.232 271.397 110.472 268.059C110.472 268.059 114.158 266.822 118.883 262.866C119.954 262.088 121.025 261.31 122.096 260.533C123.195 259.734 126.613 257.527 126.866 256.918C126.964 256.683 127.003 256.479 127 256.292C126.972 254.862 125.262 253.302 124.423 252.239Z" fill="url(#paint26_linear_606_1319)"/>
    <path d="M122.928 250.896C122.842 250.827 122.358 250.389 121.943 250C121.769 250.295 121.593 250.581 121.42 250.855C119.41 254.031 116.207 255.755 112.74 256.95C112.675 256.973 112.611 256.99 112.548 257.007C110.76 259.66 108.956 262.108 108.956 262.108C108.956 262.108 103.521 266.712 103.287 267.04C103.053 267.367 102.398 268.053 102 269.417C102 269.417 102.232 271.397 110.471 268.058C110.471 268.058 114.158 266.821 118.883 262.863C119.954 262.085 121.025 261.307 122.096 260.529C123.195 259.73 126.613 257.522 126.866 256.913C126.964 256.677 127.003 256.473 127 256.286C126.972 254.856 125.262 253.295 124.423 252.232C124.02 251.721 123.447 251.314 122.928 250.896Z" fill="url(#paint27_linear_606_1319)"/>
    <path d="M87.5121 207.925C87.5121 207.925 85.871 208.781 88.4645 212.934C91.058 217.086 113.29 250 113.29 250L120 246.983C120 246.983 110.535 219.084 97.2387 207.23C97.2387 207.23 91.6417 201.777 87.5121 207.925Z" fill="#2D447C"/>
    <path d="M109.863 172.493C109.536 172.111 109.168 171.763 108.759 171.456C107.045 170.17 104.786 170.42 102.69 170.056C97.078 169.08 92.6541 181.137 90.8671 187.91C88.9514 195.172 86.2112 200.737 87.2142 208.189C87.5105 210.389 88.3289 212.826 90.3257 213.696C91.8645 214.366 93.7024 213.861 95.0429 212.837C96.3831 211.814 97.3219 210.345 98.2028 208.89C101.941 202.717 105.15 196.228 108.423 189.785C109.931 186.817 111.478 183.777 111.902 180.46C112.26 177.658 111.651 174.574 109.863 172.493Z" fill="#2D447C"/>
    <path d="M103.981 263.713C103.978 263.067 103.78 262.397 103.631 261.752C103.589 261.569 103.289 259.791 103.306 259.597C103.545 256.77 105 249.066 105 249.066L97.2789 248C97.2789 248 97.5525 254.864 95.9764 258.683L95.9858 258.685C92.3307 260.165 85.9133 261.954 85.9133 261.954C85.9133 261.954 78.8734 262.222 78.4914 262.335C78.1097 262.447 77.1815 262.582 76.0392 263.404C76.0392 263.404 75.0123 265.095 83.4647 267.534C83.4647 267.534 87.09 268.827 93.1831 268.629C94.4915 268.677 95.7999 268.725 97.1084 268.773C98.4514 268.822 102.46 269.191 103.028 268.87C103.248 268.745 103.403 268.61 103.514 268.462C104.365 267.327 103.985 265.058 103.981 263.713Z" fill="url(#paint28_linear_606_1319)"/>
    <path d="M103.563 261.615C103.538 261.507 103.428 260.855 103.343 260.286C103.029 260.413 102.718 260.531 102.416 260.641C98.9226 261.915 95.3863 261.289 91.966 260.076C91.9015 260.053 91.8416 260.026 91.7821 260C88.7796 260.997 85.8889 261.82 85.8889 261.82C85.8889 261.82 78.8663 262.094 78.4853 262.209C78.1045 262.323 77.1786 262.46 76.0392 263.298C76.0392 263.298 75.0147 265.021 83.4463 267.506C83.4463 267.506 87.0627 268.823 93.1407 268.622C94.4459 268.671 95.7511 268.72 97.0564 268.769C98.396 268.819 102.395 269.195 102.962 268.867C103.181 268.741 103.336 268.603 103.446 268.452C104.295 267.295 103.917 264.984 103.912 263.613C103.909 262.954 103.712 262.272 103.563 261.615Z" fill="url(#paint29_linear_606_1319)"/>
    <path d="M102.658 206.424C102.658 206.424 100.906 206.101 100.385 210.857C99.8639 215.612 97 254.308 97 254.308L103.876 256C103.876 256 113.394 228.818 110.427 211.714C110.427 211.714 109.454 204.157 102.658 206.424Z" fill="#394F8E"/>
    <path d="M120.291 177.137C118.075 174.944 114.887 174.514 111.987 175.504C108.108 176.828 105.187 180.044 103.839 183.862C102.025 189.002 100.963 194.909 100.346 200.308C100.013 203.209 99.914 206.328 100.077 209.32C100.214 211.846 99.8393 215.08 101.663 217.191C102.998 218.736 105.81 219.527 107.728 218.609C109.725 217.652 110.822 215.405 111.684 213.504C112.667 211.334 113.728 209.189 114.717 207.015C116.408 203.3 117.943 199.514 119.657 195.81C121.308 192.244 122.84 188.336 122.992 184.369C123.102 181.521 122.066 178.892 120.291 177.137Z" fill="#394F8E"/>
    <path d="M123.621 183.944C123.792 179.444 123.425 175.183 124.749 170.808C126.084 166.392 127.384 161.963 128.806 157.576C129.409 155.712 130.262 153.842 130.769 151.959C131.45 149.432 130.538 147.075 129.184 144.953C128.006 143.108 126.496 141.56 124.983 140.036C124.923 139.976 124.863 139.915 124.803 139.855C124.22 139.268 123.633 138.678 122.962 138.214C120.145 136.262 115.944 135.434 112.657 136.411C110.555 137.035 108.453 137.659 106.351 138.284C104.117 138.947 102.382 140.948 101.899 143.419C100.849 148.788 99.8295 154.164 98.9043 159.554C98.4206 162.373 98.3115 165.174 97.3713 167.899C96.1461 171.45 93.9072 175.147 94.003 179.025C94.0501 180.934 95.2386 181.739 96.7029 182.427C100.486 184.204 104.185 186.255 108.12 187.652C111.959 189.015 116.114 189.214 120.175 188.822C122.743 188.574 123.523 186.53 123.621 183.944Z" fill="white"/>
    <path d="M111 144L117 140.602L112.05 139L111 144Z" fill="url(#paint30_linear_606_1319)"/>
    <path d="M109.26 142L109 148L114 143.607L111.931 142.848L110.9 143.924L111.249 142.675L109.26 142Z" fill="url(#paint31_linear_606_1319)"/>
    <path d="M109.92 146L111 146.379L103.539 172.093L99.4536 174L98 169.755L109.92 146Z" fill="url(#paint32_linear_606_1319)"/>
    <path d="M123 131.703L121.776 137.508C121.776 137.508 118.926 144.233 112 139.018L114.148 130L123 131.703Z" fill="url(#paint33_linear_606_1319)"/>
    <path d="M124 122.69L121.772 133.002L121.603 134.444C117.227 139.152 111.864 138.531 110.573 136.331C109.281 134.131 110.577 120 110.577 120L124 122.69Z" fill="url(#paint34_linear_606_1319)"/>
    <path d="M111.958 128L112 131.982L109 132L111.958 128Z" fill="url(#paint35_linear_606_1319)"/>
    <path d="M119.199 122.297C119.199 122.297 118.916 123.849 119.944 126.313C120.972 128.776 119.444 132.725 119.444 132.725L123.059 128.761L121.475 136C123.845 132.525 126.126 128.732 127.505 124.741C128.303 122.431 128.406 119.263 125.74 118.203C125.113 117.954 123.796 117.594 123.796 117.594C123.796 117.594 123.573 117.297 123.463 117.179C123.019 116.697 122.443 116.338 121.857 116.057C119.192 114.779 115.93 114.893 113.075 115.203C103.761 116.214 110.117 122.681 110.117 122.681L110.508 120.671C110.508 120.671 115.006 124.96 119.199 122.297Z" fill="#0A1123"/>
    <path d="M124.712 127.642C125.524 129.136 124.616 132.166 122 133L122.534 127.648C122.866 126.922 124.178 126.659 124.712 127.642Z" fill="url(#paint36_linear_606_1319)"/>
    <path d="M110.702 144L109 141.893L112 138C112 138 110.828 143.924 110.702 144Z" fill="url(#paint37_linear_606_1319)"/>
    <path d="M112.897 137.459L109.804 142L106 141.791L113 137L112.897 137.459Z" fill="url(#paint38_linear_606_1319)"/>
    <path d="M123 138.822L115.688 146L113 142.147L121.623 137L123 138.822Z" fill="url(#paint39_linear_606_1319)"/>
    <path d="M112.921 142L111 144L114 143.248L112.921 142Z" fill="url(#paint40_linear_606_1319)"/>
    <path d="M111.561 181.339C112.138 181.921 117.339 172.362 117.953 171.712C120.647 168.859 134.945 148.38 123.819 148.003C122.109 147.945 120.685 148.806 119.646 149.8C114.968 154.275 98 182 98 182C98 182 111.56 181.339 111.561 181.339Z" fill="url(#paint41_linear_606_1319)"/>
    <path d="M107.91 177.972C108.49 178.533 116.297 170.494 116.913 169.867C119.617 167.116 133.973 147.367 122.802 147.003C121.085 146.947 119.656 147.777 118.612 148.736C113.916 153.052 103 169.414 103 169.414C103 169.414 107.909 177.971 107.91 177.972Z" fill="white"/>
    <path d="M106.592 177.759L103.001 176.076L102.287 175.455L102 174.689L102.288 171.328L102.581 168L107.435 168.27L109.744 172.019L111 175.844L108.212 178L106.592 177.759Z" fill="url(#paint42_linear_606_1319)"/>
    <path d="M69 143.258L79.856 133C79.856 133 96.3898 172.318 98.7898 176.66C101.19 181.002 82.2517 186 82.2517 186L69 143.258Z" fill="#FBC300"/>
    <path d="M69 143.609C69 143.609 83.1251 143.609 96.851 141L109 183.508L82.2556 186L69 143.609Z" fill="#FBC300"/>
    <path d="M95.5825 147L73 149.572L73.4552 151L96 148.433L95.5825 147Z" fill="white"/>
    <path d="M96.5809 150L74 152.568L74.4572 154L97 151.436L96.5809 150Z" fill="white"/>
    <path d="M97.5793 154L75 156.564L75.4588 158L98 155.44L97.5793 154Z" fill="white"/>
    <path d="M98.5776 157L76 159.561L76.4609 161L99 158.444L98.5776 157Z" fill="white"/>
    <path d="M99.5944 161L78 163.557L78.4423 165L100 162.448L99.5944 161Z" fill="white"/>
    <path d="M100.593 164L79 166.553L79.4442 168L101 165.451L100.593 164Z" fill="white"/>
    <path d="M101.591 168L80 170.549L80.4459 172L102 169.455L101.591 168Z" fill="white"/>
    <path d="M102.59 171L81 173.546L81.4477 175L103 172.459L102.59 171Z" fill="white"/>
    <path d="M103.588 174L82 176.542L82.4497 178L104 175.463L103.588 174Z" fill="white"/>
    <path d="M104.586 178L83 180.538L83.4516 182L105 179.466L104.586 178Z" fill="white"/>
    <path d="M77.3347 174.701C77.1243 174.028 77.6495 173.568 77.6185 172.897C77.5957 172.405 77.2192 172.115 76.9136 171.789C76.4298 171.273 76.8349 170.834 77.0324 170.191C77.0766 170.047 76.213 169.293 76.1146 169.186C75.7949 168.836 75.3664 168.577 75.1081 168.171C74.866 167.791 75.059 167.218 75.4048 166.971C75.7389 166.733 76.0753 166.873 76.4267 166.972C77.2335 167.198 78.0403 167.424 78.847 167.651C79.1456 167.735 79.4734 167.793 79.7496 167.932C79.9757 168.046 80.2018 168.086 80.3853 167.837C80.5202 167.654 80.532 167.4 80.463 167.182C80.3942 166.965 80.2543 166.778 80.105 166.607C79.9555 166.436 79.7934 166.274 79.6662 166.085C79.3316 165.588 79.2792 164.91 79.5333 164.366C79.5994 164.224 79.6934 164.084 79.8368 164.027C80.0342 163.947 80.2666 164.055 80.3982 164.223C80.572 164.446 80.6176 164.758 80.7358 165.012C80.9751 165.527 81.3277 165.982 81.7239 166.382L83.292 167.59L85.7522 169.485L88.524 170.759C88.524 170.759 104.086 168.117 107.012 170.035C108.254 170.849 110.102 172.305 109.996 173.942C109.537 181.008 92.0396 176.772 90.7635 176.431C89.6099 176.123 89.1333 175.952 87.9039 175.958C87.9039 175.958 78.5418 175.999 78.5273 175.998C77.9223 175.959 77.4925 175.205 77.3347 174.701Z" fill="url(#paint43_linear_606_1319)"/>
    <path d="M107.628 179C107.628 179 108.713 171.223 105 168.473L105.727 168C105.727 168 109.391 168.805 110.051 169.702C110.66 170.529 113.064 175.169 111.454 178.605C111.331 178.868 108.112 178.974 108.112 178.974L107.628 179Z" fill="url(#paint44_linear_606_1319)"/>
    <path d="M201 117H136V120H201V117Z" fill="#8D64FF"/>
    <path d="M230 126H136V129H230V126Z" fill="#8D64FF"/>
    <path d="M230 135H136V138H230V135Z" fill="#8D64FF"/>
    <path d="M230 144H136V147H230V144Z" fill="#8D64FF"/>
    <path d="M230 152H136V156H230V152Z" fill="#8D64FF"/>
    <path d="M230 161H136V164H230V161Z" fill="#8D64FF"/>
    <path d="M230 170H136V173H230V170Z" fill="#8D64FF"/>
    <path d="M164 180H136V183H164V180Z" fill="#FF3D44"/>
    <path d="M164 190H136V193H164V190Z" fill="#FF3D44"/>
    <path d="M164 200H136V203H164V200Z" fill="#FF3D44"/>
    <path d="M164 210H136V213H164V210Z" fill="#FF3D44"/>
    <path d="M164 220H136V223H164V220Z" fill="#FF3D44"/>
    <path d="M162.959 24.7942C162.74 25.0185 162.545 25.2735 162.359 25.5282C161.061 27.3009 159.988 29.2377 158.919 31.1684C157.535 33.6683 156.147 36.177 155.086 38.8423C154.553 40.1829 154.1 41.5801 154.012 43.0267C153.968 43.7525 154.03 44.5263 154.433 45.1182C155.178 46.2126 156.828 46.224 157.921 45.5058C158.977 44.8122 159.568 43.6209 160.206 42.5415C162.676 38.361 164.801 33.9172 167.08 29.6191C167.469 28.8845 167.866 28.1286 167.978 27.2983C168.278 25.06 165.506 23.2871 163.619 24.2846C163.373 24.415 163.156 24.5923 162.959 24.7942Z" fill="url(#paint45_linear_606_1319)"/>
    <path d="M165.514 20.7235C161.538 21.9096 157 31.7023 157 31.7023L166.919 36L170 20.0007C169.736 19.9749 165.612 20.6944 165.514 20.7235Z" fill="white"/>
    <path d="M205.828 54.5109C205.787 54.3853 205.739 54.2647 205.684 54.149C204.897 52.4889 202.733 51.8004 201.234 51.1275C198.7 49.9899 196.069 49.1128 193.507 48.0497C190.379 46.7517 186.926 45.5914 183.525 46.139C182.259 46.3426 181.062 46.8312 180 47.5476C178.938 46.8312 177.741 46.3426 176.475 46.139C173.074 45.5914 169.621 46.7517 166.493 48.0497C163.931 49.1128 161.3 49.9899 158.766 51.1275C157.267 51.8004 155.103 52.4889 154.316 54.149C154.261 54.2647 154.213 54.3853 154.172 54.5109C153.669 56.0613 154.355 57.7626 155.112 59.0809C155.57 59.8777 156.896 62.1756 157.817 62.3687C161.604 63.2168 165.527 63.1112 169.352 62.633C171.674 62.3429 173.977 61.9097 176.269 61.4323C177.441 61.188 178.767 60.9615 180 60.5342C181.233 60.9615 182.559 61.188 183.73 61.4323C186.023 61.9097 188.326 62.3429 190.648 62.633C194.473 63.1112 198.396 63.2168 202.183 62.3687C203.104 62.1756 204.43 59.8777 204.888 59.0809C205.645 57.7626 206.331 56.0613 205.828 54.5109Z" fill="#0F2363"/>
    <path d="M180.044 17C180.029 17 180.014 17.0003 180 17.0007C179.986 17.0003 179.971 17 179.956 17.0021C173.583 17.0481 167 19.9981 167 19.9981C167.031 20.4497 167.063 20.9015 167.094 21.3533C167.334 24.8282 167.575 28.3028 167.815 31.7776C167.962 33.8989 168.109 36.02 168.255 38.1412C168.412 40.4069 168.712 42.3692 168.004 44.581C167.787 45.2556 167.525 46.0096 167.836 46.6446C168.084 47.1515 168.628 47.421 169.134 47.6549C170.113 48.1068 171.093 48.5594 172.109 48.9157C177.042 50.6457 182.447 49.997 187.589 49.0948C189.227 48.8074 190.987 48.4265 192.094 47.1624C192.277 46.9534 192.44 46.7192 192.524 46.4526C192.716 45.844 192.475 45.1928 192.279 44.5852C192.107 44.0478 191.969 43.4988 191.867 42.9432C191.41 40.4505 191.767 37.8235 191.94 35.3137C192.106 32.9195 192.272 30.5254 192.437 28.1313C192.625 25.4202 192.812 22.7091 193 19.9981C193 19.9981 186.417 17.0481 180.044 17Z" fill="white"/>
    <path d="M179.029 29.8848L181 26H179.029H178.971H177L178.971 29.8848V30L179 29.9424L179.029 30V29.8848Z" fill="url(#paint46_linear_606_1319)"/>
    <path d="M178.772 51.941L181 46.6531L179.452 28L178.741 28.2024L178.031 28L176 46.6531L178.71 51.941V52L178.741 51.9704L178.772 52V51.941Z" fill="url(#paint47_linear_606_1319)"/>
    <path d="M179 28L183 20H175L179 28Z" fill="url(#paint48_linear_606_1319)"/>
    <path d="M178 26L176.235 25.148L174 19C174 19 178.028 25.8899 178 26Z" fill="url(#paint49_linear_606_1319)"/>
    <path d="M174.047 18.3028L176 25.0233L173.308 27L173 18.4372L173.909 18L174.047 18.3028Z" fill="url(#paint50_linear_606_1319)"/>
    <path d="M180 26L182 25.2296L184 19C184 19 179.972 25.8899 180 26Z" fill="url(#paint51_linear_606_1319)"/>
    <path d="M183.876 18.3028L182 25.1125L184.669 27L185 18.4372L184.025 18L183.876 18.3028Z" fill="url(#paint52_linear_606_1319)"/>
    <path d="M188 8.99315C188 8.99315 187.794 17.3517 184.812 21H172.7C172.7 21 170.39 18.5958 170.029 10.8867C170.029 10.8867 169.488 6.22062 173.096 5.67958C176.705 5.13862 186.268 3.41418 188 8.99315Z" fill="url(#paint53_linear_606_1319)"/>
    <path d="M179 8L172 9.55268C172 9.55268 172.664 20.407 174.339 22.1363C174.773 22.5839 178.264 23.9772 179 24C179.736 23.9772 183.227 22.5839 183.661 22.1363C185.335 20.407 186 9.55268 186 9.55268L179 8Z" fill="url(#paint54_linear_606_1319)"/>
    <path d="M185 9.30238L185.846 16L187 9L185 9.30238Z" fill="url(#paint55_linear_606_1319)"/>
    <path d="M188.755 12.781C189.601 14.4042 188.234 17.4228 185 18L186.124 12.5546C186.59 11.8432 188.198 11.7129 188.755 12.781Z" fill="url(#paint56_linear_606_1319)"/>
    <path d="M174 9.46852C174 9.46852 177.654 14.0799 185 12.7637C185 12.7637 178.704 11.8143 177.008 8L174 9.46852Z" fill="#0A1123"/>
    <path d="M174.895 8.97114C174.895 8.97114 184.366 14.8986 189.447 8.97114L191 6.60007C191 6.60007 188.508 7.14496 187.798 6.09724C186.574 4.29453 186.075 2.34746 184.24 0.971037C183.25 0.228326 182.043 -0.0565964 180.832 0.00916152C179.723 0.0694856 178.607 0.365512 177.582 0.859673C176.484 1.38904 175.755 2.3247 174.895 3.1753C174.895 3.1753 172.369 2.38495 170.816 4.09725C169.264 5.80972 170.403 11.4457 170.403 11.4457L172.428 15L174.895 8.97114Z" fill="#0A1123"/>
    <path d="M178.993 15L178 19.2733L179.031 20L180 19.1989L178.993 15Z" fill="url(#paint57_linear_606_1319)"/>
    <path d="M169.245 12.781C168.399 14.4042 169.766 17.4226 173 18L171.876 12.5546C171.41 11.8431 169.802 11.713 169.245 12.781Z" fill="url(#paint58_linear_606_1319)"/>
    <path d="M213.291 99.2034C213.276 99.1843 213.26 99.1655 213.245 99.147C213.069 98.934 212.868 98.747 212.654 98.5765C212.735 98.6233 212.816 98.669 212.897 98.7163C212.821 98.6722 212.737 98.6234 212.648 98.5723C212.193 98.2108 211.67 97.9299 211.144 97.6789C210.976 97.5987 210.807 97.5203 210.638 97.4416C209.865 97.0124 209.177 96.6339 208.968 96.5186C208.939 96.4977 208.909 96.478 208.88 96.4562C208.879 96.457 208.879 96.4576 208.878 96.4582C208.565 96.1265 202.989 90.2677 202.708 89.7641C202.219 87.5766 202.597 84.3671 202.597 84.3671L197.994 84C197.994 84 198.647 87.9734 198.003 90.9596C197.758 91.2711 197.434 91.6171 197.238 92.0203C197.22 92.0584 197.199 92.0982 197.179 92.1379C197.204 92.1438 197.228 92.1507 197.253 92.1567C197.233 92.1616 197.212 92.1642 197.194 92.1712C196.538 92.4278 196.142 94.3505 196.046 94.9598C195.992 95.2989 195.966 95.6554 196.08 95.9784C196.258 96.4809 196.735 96.8023 197.203 97.0429C198.157 97.5341 199.192 97.8405 200.169 98.2844C201.967 99.1016 203.737 100.203 205.633 100.877C207.731 101.623 209.974 101.635 212.153 101.965C212.729 102.053 213.641 102.013 213.92 101.384C214.203 100.747 213.67 99.6847 213.291 99.2034Z" fill="url(#paint59_linear_606_1319)"/>
    <path d="M213.991 101.096C214.002 101.006 214.003 100.912 213.995 100.814C213.987 100.714 213.97 100.61 213.946 100.506C213.922 100.401 213.89 100.296 213.854 100.192C213.836 100.141 213.816 100.089 213.796 100.038C213.703 99.8064 213.588 99.5879 213.473 99.4032C213.438 99.3456 213.403 99.2906 213.368 99.2405C213.366 99.2386 213.365 99.2363 213.363 99.2343C213.339 99.199 213.314 99.1659 213.291 99.1351C213.276 99.1157 213.261 99.0964 213.245 99.0769C213.187 99.0055 213.126 98.9379 213.063 98.8717C213.038 98.8445 213.012 98.8177 212.985 98.7912C212.955 98.7608 212.923 98.7313 212.892 98.7018C212.815 98.6294 212.736 98.5598 212.654 98.493C212.735 98.5409 212.816 98.5878 212.897 98.6362C212.821 98.591 212.737 98.541 212.648 98.4887C212.421 98.3037 212.177 98.1387 211.922 97.9883C211.805 97.9195 211.687 97.8536 211.568 97.7901C211.547 97.7791 211.527 97.7682 211.507 97.7574C211.386 97.6945 211.266 97.6329 211.144 97.5735C210.977 97.4912 210.807 97.411 210.638 97.3303C209.865 96.8906 209.178 96.503 208.968 96.385C208.951 96.3728 208.935 96.3608 208.918 96.3491C208.906 96.3394 208.893 96.3309 208.878 96.3231C208.629 96.0528 206.088 93.2971 204.372 91.302C202.801 92.9697 199.442 92.5976 197.758 91C197.774 91.0354 197.468 91.4028 197.44 91.4454C197.223 91.7735 196.946 92.0567 196.752 92.4008C196.719 92.4586 196.687 92.5202 196.657 92.5846C196.601 92.7012 196.55 92.8281 196.502 92.9593C196.466 93.058 196.431 93.1588 196.399 93.2614C196.355 93.4003 196.315 93.5409 196.279 93.6791C196.259 93.7543 196.24 93.8289 196.223 93.9018C196.136 94.2664 196.076 94.5929 196.046 94.788C196.019 94.9617 195.999 95.1398 196 95.3159C196 95.3599 196.002 95.4039 196.005 95.4474C196.014 95.5784 196.037 95.7075 196.08 95.8315C196.125 95.9602 196.188 96.0773 196.265 96.1844C196.303 96.2379 196.345 96.289 196.39 96.3378C196.614 96.5815 196.91 96.7679 197.203 96.922C197.68 97.1736 198.177 97.3779 198.677 97.576C198.928 97.6752 199.178 97.7728 199.428 97.8739C199.677 97.9752 199.925 98.0801 200.169 98.1937C200.956 98.56 201.737 98.982 202.526 99.3987C203.089 99.6965 203.657 99.9913 204.232 100.261C204.693 100.477 205.159 100.677 205.633 100.85C205.764 100.898 205.896 100.942 206.028 100.985C206.16 101.027 206.293 101.066 206.426 101.103C206.683 101.175 206.942 101.237 207.203 101.293C207.347 101.323 207.491 101.352 207.636 101.379C208.043 101.454 208.452 101.514 208.863 101.567C209.958 101.708 211.064 101.796 212.153 101.965C212.333 101.993 212.546 102.008 212.762 101.996C213.237 101.97 213.729 101.812 213.921 101.369C213.956 101.288 213.979 101.199 213.99 101.106C213.991 101.103 213.991 101.099 213.991 101.096ZM210.61 97.3168C210.474 97.2517 210.338 97.1859 210.203 97.1186C210.191 97.1128 210.18 97.1068 210.168 97.1009C209.751 96.8921 209.345 96.666 208.97 96.3864C208.97 96.3864 208.97 96.3864 208.97 96.3864C209.517 96.6943 210.064 97.0057 210.61 97.3168Z" fill="url(#paint60_linear_606_1319)"/>
    <path d="M205.029 54.6969C205.029 54.6969 206.253 54.7251 205.952 58.0099C205.651 61.295 202.275 87.8313 202.275 87.8313L196.948 88C196.948 88 194.048 68.3122 198.391 57.1773C198.391 57.1773 200.763 52.2103 205.029 54.6969Z" fill="#0F2363"/>
    <path d="M146.709 99.2034C146.724 99.1843 146.74 99.1655 146.755 99.147C146.931 98.934 147.132 98.747 147.346 98.5765C147.265 98.6233 147.184 98.669 147.103 98.7163C147.179 98.6722 147.263 98.6234 147.352 98.5723C147.807 98.2108 148.33 97.9299 148.856 97.6789C149.023 97.5987 149.193 97.5203 149.362 97.4416C150.135 97.0124 150.823 96.6339 151.032 96.5186C151.061 96.4977 151.091 96.478 151.12 96.4562C151.12 96.457 151.121 96.4576 151.122 96.4582C151.435 96.1265 157.011 90.2677 157.292 89.7641C157.781 87.5766 157.403 84.3671 157.403 84.3671L162.006 84C162.006 84 161.353 87.9734 161.997 90.9596C162.242 91.2711 162.566 91.6171 162.762 92.0203C162.78 92.0584 162.801 92.0982 162.821 92.1379C162.796 92.1438 162.772 92.1507 162.747 92.1567C162.767 92.1616 162.788 92.1642 162.806 92.1712C163.462 92.4278 163.858 94.3505 163.954 94.9598C164.008 95.2989 164.034 95.6554 163.92 95.9784C163.742 96.4809 163.265 96.8023 162.797 97.0429C161.843 97.5341 160.808 97.8405 159.831 98.2844C158.033 99.1016 156.263 100.203 154.367 100.877C152.269 101.623 150.026 101.635 147.847 101.965C147.271 102.053 146.359 102.013 146.08 101.384C145.797 100.747 146.33 99.6847 146.709 99.2034Z" fill="url(#paint61_linear_606_1319)"/>
    <path d="M146.01 101.106C146.021 101.199 146.044 101.288 146.079 101.369C146.271 101.812 146.763 101.97 147.238 101.996C147.454 102.008 147.667 101.993 147.847 101.965C148.936 101.796 150.042 101.708 151.137 101.567C151.548 101.514 151.957 101.454 152.364 101.379C152.509 101.352 152.653 101.323 152.797 101.293C153.057 101.237 153.317 101.175 153.574 101.103C153.707 101.066 153.84 101.027 153.972 100.985C154.104 100.942 154.236 100.898 154.367 100.85C154.841 100.677 155.307 100.477 155.768 100.261C156.343 99.9913 156.911 99.6964 157.474 99.3987C158.263 98.982 159.044 98.56 159.831 98.1937C160.075 98.0801 160.323 97.9752 160.572 97.8739C160.822 97.7728 161.072 97.6752 161.322 97.576C161.823 97.3779 162.32 97.1736 162.797 96.922C163.09 96.7679 163.386 96.5815 163.61 96.3378C163.655 96.289 163.697 96.2379 163.735 96.1844C163.812 96.0773 163.875 95.9602 163.92 95.8315C163.963 95.7075 163.986 95.5784 163.995 95.4474C163.998 95.4039 164 95.3599 164 95.3159C164.001 95.1398 163.981 94.9617 163.954 94.788C163.924 94.5929 163.864 94.2664 163.777 93.9018C163.76 93.8289 163.741 93.7543 163.721 93.6791C163.685 93.541 163.645 93.4003 163.601 93.2614C163.569 93.1588 163.534 93.058 163.498 92.9593C163.45 92.8281 163.399 92.7012 163.343 92.5846C163.313 92.5202 163.281 92.4586 163.248 92.4008C163.054 92.0567 162.777 91.7735 162.56 91.4454C162.532 91.4028 162.225 91.0354 162.242 91C160.558 92.5976 157.199 92.9697 155.628 91.302C153.911 93.2971 151.371 96.0528 151.122 96.3231C151.107 96.3309 151.094 96.3394 151.082 96.3491C151.065 96.3608 151.049 96.3729 151.032 96.385C150.823 96.503 150.134 96.8906 149.362 97.3303C149.193 97.411 149.023 97.4912 148.855 97.5735C148.734 97.6329 148.613 97.6945 148.493 97.7574C148.473 97.7682 148.453 97.7791 148.432 97.7901C148.313 97.8536 148.195 97.9195 148.078 97.9883C147.823 98.1387 147.579 98.3037 147.352 98.4887C147.262 98.541 147.179 98.591 147.103 98.6362C147.184 98.5878 147.265 98.5409 147.346 98.493C147.264 98.5598 147.185 98.6294 147.108 98.7018C147.077 98.7313 147.045 98.7608 147.014 98.7912C146.988 98.8177 146.962 98.8445 146.937 98.8717C146.874 98.9379 146.813 99.0055 146.755 99.0769C146.739 99.0964 146.724 99.1157 146.709 99.1351C146.686 99.1659 146.661 99.199 146.636 99.2343C146.635 99.2363 146.634 99.2386 146.632 99.2405C146.597 99.2906 146.562 99.3456 146.526 99.4032C146.412 99.5879 146.297 99.8064 146.204 100.038C146.184 100.089 146.164 100.141 146.146 100.192C146.11 100.296 146.078 100.401 146.054 100.506C146.03 100.61 146.013 100.714 146.005 100.814C145.997 100.912 145.998 101.006 146.009 101.096C146.009 101.099 146.009 101.103 146.01 101.106ZM151.03 96.3864C151.03 96.3864 151.03 96.3865 151.03 96.3865C150.655 96.666 150.249 96.8921 149.832 97.1009C149.82 97.1068 149.809 97.1128 149.797 97.1186C149.662 97.1859 149.526 97.2517 149.39 97.3168C149.936 97.0057 150.482 96.6944 151.03 96.3864Z" fill="url(#paint62_linear_606_1319)"/>
    <path d="M154.874 54.6969C154.874 54.6969 153.772 54.7251 154.043 58.0099C154.314 61.295 157.352 87.8313 157.352 87.8313L162.147 88C162.147 88 164.757 68.3122 160.848 57.1773C160.848 57.1773 158.713 52.2103 154.874 54.6969Z" fill="#0F2363"/>
    <path d="M185.969 51H173.853C173.365 51 172.97 50.633 172.97 50.1803L172 32.8197C172 32.3669 172.395 32 172.883 32H187.117C187.605 32 188 32.3669 188 32.8197L186.852 50.1803C186.852 50.633 186.457 51 185.969 51Z" fill="#0A1123"/>
    <path d="M197.041 24.7942C197.26 25.0185 197.455 25.2735 197.642 25.5282C198.939 27.3009 200.012 29.2377 201.081 31.1684C202.465 33.6683 203.853 36.177 204.914 38.8423C205.447 40.1829 205.899 41.5801 205.988 43.0267C206.032 43.7525 205.97 44.5263 205.567 45.1182C204.822 46.2126 203.172 46.224 202.079 45.5058C201.023 44.8122 200.432 43.6209 199.795 42.5415C197.324 38.361 195.199 33.9172 192.92 29.6191C192.53 28.8845 192.134 28.1286 192.022 27.2983C191.722 25.06 194.494 23.2871 196.381 24.2846C196.627 24.415 196.844 24.5923 197.041 24.7942Z" fill="url(#paint63_linear_606_1319)"/>
    <path d="M194.486 20.7235C198.462 21.9096 203 31.7023 203 31.7023L193.081 36L190 20.0007C190.264 19.9749 194.388 20.6944 194.486 20.7235Z" fill="white"/>
    <path d="M185.891 45.654C185.624 45.1989 185.894 44.8207 185.748 44.3486C185.642 44.003 185.333 43.8352 185.067 43.6348C184.644 43.3174 184.836 42.9665 184.85 42.492C184.853 42.3857 184.13 41.9378 184.044 41.8714C183.763 41.6559 183.425 41.5146 183.176 41.2533C182.837 40.8994 183.053 40.5246 183.279 40.1959L186.89 40.6889C186.872 40.0452 186.985 39 186.985 39L188.596 40.0281L190.609 41.1249C190.609 41.1249 200.564 40.0127 203.115 40.1721C204.203 40.2401 205.477 41.5126 205.856 42.6413C206.575 44.7854 204.452 46.1896 202.803 46.7157C200.558 47.4325 198.311 46.6079 196.055 46.274C195.132 46.1377 194.208 46.0081 193.283 45.8935C192.447 45.79 191.349 45.4764 190.52 45.6028C190.52 45.6028 186.948 46.453 186.938 46.4537C186.522 46.4859 186.091 45.9951 185.891 45.654Z" fill="url(#paint64_linear_606_1319)"/>
    <path d="M173.983 45.654C174.262 45.1989 173.98 44.8207 174.132 44.3486C174.244 44.003 174.565 43.8352 174.844 43.6348C175.285 43.3174 175.084 42.9665 175.069 42.492C175.066 42.3857 175.821 41.9378 175.911 41.8714C176.204 41.6559 176.556 41.5146 176.817 41.2533C177.17 40.8994 176.945 40.5246 176.709 40.1959L172.941 40.6889C172.96 40.0452 172.842 39 172.842 39L171.161 40.0281L169.06 41.1249C169.06 41.1249 158.673 40.0127 156.01 40.1721C154.875 40.2401 153.546 41.5126 153.15 42.6413C152.4 44.7854 154.616 46.1896 156.336 46.7157C158.679 47.4325 161.023 46.6079 163.378 46.274C164.341 46.1377 165.305 46.0081 166.27 45.8935C167.143 45.79 168.288 45.4764 169.153 45.6028C169.153 45.6028 172.881 46.453 172.891 46.4537C173.325 46.4859 173.774 45.9951 173.983 45.654Z" fill="url(#paint65_linear_606_1319)"/>
    <path fill-rule="evenodd" clip-rule="evenodd" d="M392 230.933C392 230.933 389.537 230.693 387.505 228.565C385.807 226.785 385.21 225.021 385 224C384.79 225.021 384.193 226.785 382.495 228.565C380.463 230.693 378 230.933 378 230.933L378.061 231L378 231.067C378 231.067 380.463 231.307 382.495 233.435C384.193 235.215 384.79 236.979 385 238C385.21 236.979 385.807 235.215 387.505 233.435C389.537 231.307 392 231.067 392 231.067L391.939 231L392 230.933Z" fill="white"/>
    <path fill-rule="evenodd" clip-rule="evenodd" d="M362 112.962C362 112.962 360.592 112.824 359.431 111.608C358.461 110.592 358.12 109.583 358 109C357.88 109.583 357.539 110.592 356.569 111.608C355.408 112.824 354 112.962 354 112.962L354.035 113L354 113.038C354 113.038 355.408 113.176 356.569 114.392C357.539 115.408 357.88 116.416 358 117C358.12 116.416 358.461 115.408 359.431 114.392C360.592 113.176 362 113.038 362 113.038L361.965 113L362 112.962Z" fill="white"/>
    <path fill-rule="evenodd" clip-rule="evenodd" d="M97 107.457C97 107.457 95.5924 107.302 94.4314 105.934C93.4609 104.791 93.12 103.656 93 103C92.8801 103.656 92.5391 104.791 91.5685 105.934C90.4077 107.302 89 107.457 89 107.457L89.0347 107.5L89 107.543C89 107.543 90.4077 107.698 91.5685 109.066C92.5391 110.209 92.8801 111.343 93 112C93.12 111.343 93.4609 110.209 94.4314 109.066C95.5924 107.698 97 107.543 97 107.543L96.9653 107.5L97 107.457Z" fill="white"/>
    <path fill-rule="evenodd" clip-rule="evenodd" d="M226 42.962C226 42.962 224.592 42.8244 223.431 41.6083C222.461 40.5917 222.12 39.5835 222 39C221.88 39.5835 221.539 40.5917 220.569 41.6083C219.408 42.8244 218 42.962 218 42.962L218.035 43L218 43.0381C218 43.0381 219.408 43.1756 220.569 44.3917C221.539 45.4083 221.88 46.4166 222 47C222.12 46.4166 222.461 45.4083 223.431 44.3917C224.592 43.1756 226 43.0381 226 43.0381L225.965 43L226 42.962Z" fill="white"/>
    <path fill-rule="evenodd" clip-rule="evenodd" d="M283 119.962C283 119.962 281.592 119.824 280.431 118.608C279.461 117.592 279.12 116.584 279 116C278.88 116.584 278.539 117.592 277.569 118.608C276.408 119.824 275 119.962 275 119.962L275.035 120L275 120.038C275 120.038 276.408 120.176 277.569 121.392C278.539 122.408 278.88 123.417 279 124C279.12 123.417 279.461 122.408 280.431 121.392C281.592 120.176 283 120.038 283 120.038L282.965 120L283 119.962Z" fill="white"/>
    <path fill-rule="evenodd" clip-rule="evenodd" d="M71 227.933C71 227.933 68.3606 227.693 66.1841 225.565C64.3643 223.785 63.7249 222.021 63.5 221C63.2751 222.021 62.6359 223.785 60.816 225.565C58.6394 227.693 56 227.933 56 227.933L56.0649 228L56 228.067C56 228.067 58.6394 228.307 60.816 230.435C62.6359 232.215 63.2751 233.979 63.5 235C63.7249 233.979 64.3643 232.215 66.1841 230.435C68.3606 228.307 71 228.067 71 228.067L70.9353 228L71 227.933Z" fill="white"/>
    <defs>
        <linearGradient id="paint0_linear_606_1319" x1="174.446" y1="122.144" x2="176.099" y2="119.655" gradientUnits="userSpaceOnUse">
            <stop stop-color="#F9FBE0"/>
            <stop offset="0.2412" stop-color="#F5F5D8"/>
            <stop offset="0.60579" stop-color="#ECE6C4"/>
            <stop offset="0.9973" stop-color="#DECFA6"/>
        </linearGradient>
        <linearGradient id="paint1_linear_606_1319" x1="140.383" y1="99.4339" x2="142.036" y2="96.9453" gradientUnits="userSpaceOnUse">
            <stop stop-color="#F9FBE0"/>
            <stop offset="0.2412" stop-color="#F5F5D8"/>
            <stop offset="0.60579" stop-color="#ECE6C4"/>
            <stop offset="0.9973" stop-color="#DECFA6"/>
        </linearGradient>
        <linearGradient id="paint2_linear_606_1319" x1="241.253" y1="214.246" x2="271.058" y2="213.364" gradientUnits="userSpaceOnUse">
            <stop stop-color="#E0C748"/>
            <stop offset="0.17243" stop-color="#E0C850"/>
            <stop offset="0.43318" stop-color="#DFC964"/>
            <stop offset="0.74807" stop-color="#DFCC86"/>
            <stop offset="0.9973" stop-color="#DECFA6"/>
        </linearGradient>
        <linearGradient id="paint3_linear_606_1319" x1="329.592" y1="135.509" x2="343.082" y2="225.832" gradientUnits="userSpaceOnUse">
            <stop stop-color="#E0C748"/>
            <stop offset="0.17243" stop-color="#E0C850"/>
            <stop offset="0.43318" stop-color="#DFC964"/>
            <stop offset="0.74807" stop-color="#DFCC86"/>
            <stop offset="0.9973" stop-color="#DECFA6"/>
        </linearGradient>
        <linearGradient id="paint4_linear_606_1319" x1="278.038" y1="184.528" x2="252.436" y2="201.077" gradientUnits="userSpaceOnUse">
            <stop stop-color="#E0C748"/>
            <stop offset="0.17243" stop-color="#E0C850"/>
            <stop offset="0.43318" stop-color="#DFC964"/>
            <stop offset="0.74807" stop-color="#DFCC86"/>
            <stop offset="0.9973" stop-color="#DECFA6"/>
        </linearGradient>
        <linearGradient id="paint5_linear_606_1319" x1="280.814" y1="249.935" x2="253.538" y2="266.035" gradientUnits="userSpaceOnUse">
            <stop stop-color="#E0C748"/>
            <stop offset="0.17243" stop-color="#E0C850"/>
            <stop offset="0.43318" stop-color="#DFC964"/>
            <stop offset="0.74807" stop-color="#DFCC86"/>
            <stop offset="0.9973" stop-color="#DECFA6"/>
        </linearGradient>
        <linearGradient id="paint6_linear_606_1319" x1="378.364" y1="122.328" x2="373.058" y2="118.968" gradientUnits="userSpaceOnUse">
            <stop stop-color="#FFD1C1"/>
            <stop offset="0.48891" stop-color="#FFCFBF"/>
            <stop offset="0.66499" stop-color="#FFCAB8"/>
            <stop offset="0.79047" stop-color="#FFC0AD"/>
            <stop offset="0.89197" stop-color="#FFB29C"/>
            <stop offset="0.97791" stop-color="#FFA086"/>
            <stop offset="1" stop-color="#FF9A7F"/>
        </linearGradient>
        <linearGradient id="paint7_linear_606_1319" x1="366.897" y1="131.345" x2="350.665" y2="124.77" gradientUnits="userSpaceOnUse">
            <stop stop-color="#F9FBFC"/>
            <stop offset="0.29229" stop-color="#F1F6FD"/>
            <stop offset="0.73301" stop-color="#DDE6FE"/>
            <stop offset="0.9973" stop-color="#CDDBFF"/>
        </linearGradient>
        <linearGradient id="paint8_linear_606_1319" x1="370.5" y1="206" x2="370.5" y2="188" gradientUnits="userSpaceOnUse">
            <stop stop-color="#FFD1C1"/>
            <stop offset="0.28058" stop-color="#FFCEBE"/>
            <stop offset="0.51036" stop-color="#FFC6B4"/>
            <stop offset="0.72215" stop-color="#FFB8A2"/>
            <stop offset="0.92206" stop-color="#FFA48B"/>
            <stop offset="1" stop-color="#FF9A7F"/>
        </linearGradient>
        <linearGradient id="paint9_linear_606_1319" x1="359" y1="200.5" x2="382" y2="200.5" gradientUnits="userSpaceOnUse">
            <stop stop-color="#071786"/>
            <stop offset="0.15094" stop-color="#05136B"/>
            <stop offset="0.32365" stop-color="#041055"/>
            <stop offset="0.51068" stop-color="#030E45"/>
            <stop offset="0.72042" stop-color="#020C3B"/>
            <stop offset="1" stop-color="#020C38"/>
        </linearGradient>
        <linearGradient id="paint10_linear_606_1319" x1="350.963" y1="215.652" x2="336.961" y2="192.919" gradientUnits="userSpaceOnUse">
            <stop stop-color="#FFD1C1"/>
            <stop offset="0.28058" stop-color="#FFCEBE"/>
            <stop offset="0.51036" stop-color="#FFC6B4"/>
            <stop offset="0.72215" stop-color="#FFB8A2"/>
            <stop offset="0.92206" stop-color="#FFA48B"/>
            <stop offset="1" stop-color="#FF9A7F"/>
        </linearGradient>
        <linearGradient id="paint11_linear_606_1319" x1="338.16" y1="211.816" x2="353.727" y2="202.72" gradientUnits="userSpaceOnUse">
            <stop stop-color="#071786"/>
            <stop offset="0.15094" stop-color="#05136B"/>
            <stop offset="0.32365" stop-color="#041055"/>
            <stop offset="0.51068" stop-color="#030E45"/>
            <stop offset="0.72042" stop-color="#020C3B"/>
            <stop offset="1" stop-color="#020C38"/>
        </linearGradient>
        <linearGradient id="paint12_linear_606_1319" x1="328.5" y1="146" x2="328.5" y2="104" gradientUnits="userSpaceOnUse">
            <stop stop-color="#FFD1C1"/>
            <stop offset="0.21994" stop-color="#FFCCBB"/>
            <stop offset="0.5082" stop-color="#FFBEAB"/>
            <stop offset="0.83309" stop-color="#FFA890"/>
            <stop offset="1" stop-color="#FF9A7F"/>
        </linearGradient>
        <linearGradient id="paint13_linear_606_1319" x1="333" y1="114" x2="333" y2="108" gradientUnits="userSpaceOnUse">
            <stop stop-color="#071786"/>
            <stop offset="0.20375" stop-color="#071681"/>
            <stop offset="0.45046" stop-color="#061472"/>
            <stop offset="0.71937" stop-color="#04115A"/>
            <stop offset="1" stop-color="#020C38"/>
        </linearGradient>
        <linearGradient id="paint14_linear_606_1319" x1="341.187" y1="129.276" x2="327.185" y2="120.311" gradientUnits="userSpaceOnUse">
            <stop stop-color="#071786"/>
            <stop offset="0.19727" stop-color="#07167E"/>
            <stop offset="0.49836" stop-color="#051369"/>
            <stop offset="0.86391" stop-color="#030E47"/>
            <stop offset="1" stop-color="#020C38"/>
        </linearGradient>
        <linearGradient id="paint15_linear_606_1319" x1="322.301" y1="94.5405" x2="329.683" y2="97.4368" gradientUnits="userSpaceOnUse">
            <stop stop-color="#071786"/>
            <stop offset="0.15094" stop-color="#05136B"/>
            <stop offset="0.32365" stop-color="#041055"/>
            <stop offset="0.51068" stop-color="#030E45"/>
            <stop offset="0.72042" stop-color="#020C3B"/>
            <stop offset="1" stop-color="#020C38"/>
        </linearGradient>
        <linearGradient id="paint16_linear_606_1319" x1="329.5" y1="93" x2="329.5" y2="108" gradientUnits="userSpaceOnUse">
            <stop stop-color="#FFD1C1"/>
            <stop offset="0.2863" stop-color="#FFCEBE"/>
            <stop offset="0.51407" stop-color="#FFC6B4"/>
            <stop offset="0.72169" stop-color="#FFB8A3"/>
            <stop offset="0.91626" stop-color="#FFA58C"/>
            <stop offset="1" stop-color="#FF9A7F"/>
        </linearGradient>
        <linearGradient id="paint17_linear_606_1319" x1="356.293" y1="127.572" x2="348.667" y2="122.384" gradientUnits="userSpaceOnUse">
            <stop stop-color="#F9FBE0"/>
            <stop offset="0.2412" stop-color="#F5F5D8"/>
            <stop offset="0.60579" stop-color="#ECE6C4"/>
            <stop offset="0.9973" stop-color="#DECFA6"/>
        </linearGradient>
        <linearGradient id="paint18_linear_606_1319" x1="344.007" y1="115.178" x2="355.62" y2="117.705" gradientUnits="userSpaceOnUse">
            <stop stop-color="#FFD1C1"/>
            <stop offset="0.48891" stop-color="#FFCFBF"/>
            <stop offset="0.66499" stop-color="#FFCAB8"/>
            <stop offset="0.79047" stop-color="#FFC0AD"/>
            <stop offset="0.89197" stop-color="#FFB29C"/>
            <stop offset="0.97791" stop-color="#FFA086"/>
            <stop offset="1" stop-color="#FF9A7F"/>
        </linearGradient>
        <linearGradient id="paint19_linear_606_1319" x1="334.5" y1="110" x2="334.5" y2="102" gradientUnits="userSpaceOnUse">
            <stop stop-color="#E7E6FF"/>
            <stop offset="0.3393" stop-color="#C9D2F8"/>
            <stop offset="0.76374" stop-color="#AABDF1"/>
            <stop offset="1" stop-color="#9EB5EE"/>
        </linearGradient>
        <linearGradient id="paint20_linear_606_1319" x1="336" y1="109" x2="336" y2="102" gradientUnits="userSpaceOnUse">
            <stop stop-color="#F9FBFC"/>
            <stop offset="0.9973" stop-color="#CDDBFF"/>
        </linearGradient>
        <linearGradient id="paint21_linear_606_1319" x1="327.5" y1="111" x2="327.5" y2="102" gradientUnits="userSpaceOnUse">
            <stop stop-color="#F9FBFC"/>
            <stop offset="0.30689" stop-color="#F0F5FD"/>
            <stop offset="0.80311" stop-color="#D8E3FE"/>
            <stop offset="0.9973" stop-color="#CDDBFF"/>
        </linearGradient>
        <linearGradient id="paint22_linear_606_1319" x1="332" y1="110" x2="332" y2="108" gradientUnits="userSpaceOnUse">
            <stop stop-color="#E7E6FF"/>
            <stop offset="0.3393" stop-color="#C9D2F8"/>
            <stop offset="0.76374" stop-color="#AABDF1"/>
            <stop offset="1" stop-color="#9EB5EE"/>
        </linearGradient>
        <linearGradient id="paint23_linear_606_1319" x1="326.124" y1="92.004" x2="340.108" y2="96.5578" gradientUnits="userSpaceOnUse">
            <stop stop-color="#FFD1C1"/>
            <stop offset="0.48891" stop-color="#FFCFBF"/>
            <stop offset="0.66499" stop-color="#FFCAB8"/>
            <stop offset="0.79047" stop-color="#FFC0AD"/>
            <stop offset="0.89197" stop-color="#FFB29C"/>
            <stop offset="0.97791" stop-color="#FFA086"/>
            <stop offset="1" stop-color="#FF9A7F"/>
        </linearGradient>
        <linearGradient id="paint24_linear_606_1319" x1="337.832" y1="95.0998" x2="340.702" y2="96.2515" gradientUnits="userSpaceOnUse">
            <stop stop-color="#EEA281"/>
            <stop offset="0.246" stop-color="#EE9C7B"/>
            <stop offset="0.58234" stop-color="#ED8A6C"/>
            <stop offset="0.9693" stop-color="#EC6E52"/>
            <stop offset="1" stop-color="#EC6B50"/>
        </linearGradient>
        <linearGradient id="paint25_linear_606_1319" x1="328.631" y1="91.0639" x2="325.388" y2="92.8529" gradientUnits="userSpaceOnUse">
            <stop stop-color="#FFD1C1"/>
            <stop offset="0.22619" stop-color="#FFCDBC"/>
            <stop offset="0.49489" stop-color="#FFC1AE"/>
            <stop offset="0.78412" stop-color="#FFAD96"/>
            <stop offset="1" stop-color="#FF9A7F"/>
        </linearGradient>
        <linearGradient id="paint26_linear_606_1319" x1="101.917" y1="255.046" x2="126.992" y2="254.9" gradientUnits="userSpaceOnUse">
            <stop stop-color="#FFD1C1"/>
            <stop offset="0.21866" stop-color="#FFCCBA"/>
            <stop offset="0.52672" stop-color="#FFBCA8"/>
            <stop offset="0.88625" stop-color="#FFA38A"/>
            <stop offset="1" stop-color="#FF9A7F"/>
        </linearGradient>
        <linearGradient id="paint27_linear_606_1319" x1="125.206" y1="263.337" x2="104.976" y2="258.044" gradientUnits="userSpaceOnUse">
            <stop stop-color="#071786"/>
            <stop offset="0.15094" stop-color="#05136B"/>
            <stop offset="0.32365" stop-color="#041055"/>
            <stop offset="0.51068" stop-color="#030E45"/>
            <stop offset="0.72042" stop-color="#020C3B"/>
            <stop offset="1" stop-color="#020C38"/>
        </linearGradient>
        <linearGradient id="paint28_linear_606_1319" x1="86.394" y1="252.57" x2="103.285" y2="268.715" gradientUnits="userSpaceOnUse">
            <stop stop-color="#FFD1C1"/>
            <stop offset="0.21866" stop-color="#FFCCBA"/>
            <stop offset="0.52672" stop-color="#FFBCA8"/>
            <stop offset="0.88625" stop-color="#FFA38A"/>
            <stop offset="1" stop-color="#FF9A7F"/>
        </linearGradient>
        <linearGradient id="paint29_linear_606_1319" x1="96.1976" y1="273.066" x2="86.2062" y2="256.965" gradientUnits="userSpaceOnUse">
            <stop stop-color="#071786"/>
            <stop offset="0.15094" stop-color="#05136B"/>
            <stop offset="0.32365" stop-color="#041055"/>
            <stop offset="0.51068" stop-color="#030E45"/>
            <stop offset="0.72042" stop-color="#020C3B"/>
            <stop offset="1" stop-color="#020C38"/>
        </linearGradient>
        <linearGradient id="paint30_linear_606_1319" x1="114.599" y1="139.542" x2="113.536" y2="144.539" gradientUnits="userSpaceOnUse">
            <stop stop-color="#FFD1C1"/>
            <stop offset="0.21866" stop-color="#FFCCBA"/>
            <stop offset="0.52672" stop-color="#FFBCA8"/>
            <stop offset="0.88625" stop-color="#FFA38A"/>
            <stop offset="1" stop-color="#FF9A7F"/>
        </linearGradient>
        <linearGradient id="paint31_linear_606_1319" x1="109.496" y1="148.154" x2="111.214" y2="142.605" gradientUnits="userSpaceOnUse">
            <stop stop-color="#071786"/>
            <stop offset="0.20375" stop-color="#071681"/>
            <stop offset="0.45046" stop-color="#061472"/>
            <stop offset="0.71937" stop-color="#04115A"/>
            <stop offset="1" stop-color="#020C38"/>
        </linearGradient>
        <linearGradient id="paint32_linear_606_1319" x1="96.4526" y1="161.543" x2="113.26" y2="158.377" gradientUnits="userSpaceOnUse">
            <stop stop-color="#071786"/>
            <stop offset="0.19727" stop-color="#07167E"/>
            <stop offset="0.49836" stop-color="#051369"/>
            <stop offset="0.86391" stop-color="#030E47"/>
            <stop offset="1" stop-color="#020C38"/>
        </linearGradient>
        <linearGradient id="paint33_linear_606_1319" x1="112.932" y1="134.762" x2="121.893" y2="137.05" gradientUnits="userSpaceOnUse">
            <stop stop-color="#FFD1C1"/>
            <stop offset="0.21866" stop-color="#FFCCBA"/>
            <stop offset="0.52672" stop-color="#FFBCA8"/>
            <stop offset="0.88625" stop-color="#FFA38A"/>
            <stop offset="1" stop-color="#FF9A7F"/>
        </linearGradient>
        <linearGradient id="paint34_linear_606_1319" x1="126.316" y1="131.592" x2="106.731" y2="128.075" gradientUnits="userSpaceOnUse">
            <stop stop-color="#FFD1C1"/>
            <stop offset="0.21866" stop-color="#FFCCBA"/>
            <stop offset="0.52672" stop-color="#FFBCA8"/>
            <stop offset="0.88625" stop-color="#FFA38A"/>
            <stop offset="1" stop-color="#FF9A7F"/>
        </linearGradient>
        <linearGradient id="paint35_linear_606_1319" x1="109" y1="130" x2="112" y2="130" gradientUnits="userSpaceOnUse">
            <stop stop-color="#FFD1C1"/>
            <stop offset="0.21866" stop-color="#FFCCBA"/>
            <stop offset="0.52672" stop-color="#FFBCA8"/>
            <stop offset="0.88625" stop-color="#FFA38A"/>
            <stop offset="1" stop-color="#FF9A7F"/>
        </linearGradient>
        <linearGradient id="paint36_linear_606_1319" x1="121.888" y1="129.457" x2="124.691" y2="130.459" gradientUnits="userSpaceOnUse">
            <stop stop-color="#FFD1C1"/>
            <stop offset="0.21866" stop-color="#FFCCBA"/>
            <stop offset="0.52672" stop-color="#FFBCA8"/>
            <stop offset="0.88625" stop-color="#FFA38A"/>
            <stop offset="1" stop-color="#FF9A7F"/>
        </linearGradient>
        <linearGradient id="paint37_linear_606_1319" x1="109.657" y1="143.751" x2="111.082" y2="137.781" gradientUnits="userSpaceOnUse">
            <stop stop-color="#E7E6FF"/>
            <stop offset="0.3393" stop-color="#C9D2F8"/>
            <stop offset="0.76374" stop-color="#AABDF1"/>
            <stop offset="1" stop-color="#9EB5EE"/>
        </linearGradient>
        <linearGradient id="paint38_linear_606_1319" x1="108.793" y1="142.545" x2="110.475" y2="136.318" gradientUnits="userSpaceOnUse">
            <stop stop-color="#F9FBFC"/>
            <stop offset="0.9973" stop-color="#CDDBFF"/>
        </linearGradient>
        <linearGradient id="paint39_linear_606_1319" x1="116.636" y1="146.243" x2="119.163" y2="136.371" gradientUnits="userSpaceOnUse">
            <stop stop-color="#F9FBFC"/>
            <stop offset="0.30689" stop-color="#F0F5FD"/>
            <stop offset="0.80311" stop-color="#D8E3FE"/>
            <stop offset="0.9973" stop-color="#CDDBFF"/>
        </linearGradient>
        <linearGradient id="paint40_linear_606_1319" x1="112.315" y1="144.285" x2="112.815" y2="141.977" gradientUnits="userSpaceOnUse">
            <stop stop-color="#E7E6FF"/>
            <stop offset="0.3393" stop-color="#C9D2F8"/>
            <stop offset="0.76374" stop-color="#AABDF1"/>
            <stop offset="1" stop-color="#9EB5EE"/>
        </linearGradient>
        <linearGradient id="paint41_linear_606_1319" x1="98" y1="165" x2="128" y2="165" gradientUnits="userSpaceOnUse">
            <stop stop-color="#F9FBFC"/>
            <stop offset="0.30689" stop-color="#F0F5FD"/>
            <stop offset="0.80311" stop-color="#D8E3FE"/>
            <stop offset="0.9973" stop-color="#CDDBFF"/>
        </linearGradient>
        <linearGradient id="paint42_linear_606_1319" x1="101.934" y1="173.154" x2="110.868" y2="172.77" gradientUnits="userSpaceOnUse">
            <stop stop-color="#F9FBFC"/>
            <stop offset="0.30689" stop-color="#F0F5FD"/>
            <stop offset="0.80311" stop-color="#D8E3FE"/>
            <stop offset="0.9973" stop-color="#CDDBFF"/>
        </linearGradient>
        <linearGradient id="paint43_linear_606_1319" x1="92.8881" y1="163.706" x2="92.0302" y2="179.016" gradientUnits="userSpaceOnUse">
            <stop stop-color="#F4F3F1"/>
            <stop offset="0.30989" stop-color="#F9D6D9"/>
            <stop offset="0.64964" stop-color="#FDBCC4"/>
            <stop offset="0.85244" stop-color="#FFB2BC"/>
        </linearGradient>
        <linearGradient id="paint44_linear_606_1319" x1="103.88" y1="172.838" x2="112.465" y2="175.041" gradientUnits="userSpaceOnUse">
            <stop stop-color="#F9FBFC"/>
            <stop offset="0.30689" stop-color="#F0F5FD"/>
            <stop offset="0.80311" stop-color="#D8E3FE"/>
            <stop offset="0.9973" stop-color="#CDDBFF"/>
        </linearGradient>
        <linearGradient id="paint45_linear_606_1319" x1="161.384" y1="23.8853" x2="160.646" y2="46.1469" gradientUnits="userSpaceOnUse">
            <stop stop-color="#FFD1C1"/>
            <stop offset="0.2863" stop-color="#FFCEBE"/>
            <stop offset="0.51407" stop-color="#FFC6B4"/>
            <stop offset="0.72169" stop-color="#FFB8A3"/>
            <stop offset="0.91626" stop-color="#FFA58C"/>
            <stop offset="1" stop-color="#FF9A7F"/>
        </linearGradient>
        <linearGradient id="paint46_linear_606_1319" x1="179" y1="30" x2="179" y2="25.9654" gradientUnits="userSpaceOnUse">
            <stop stop-color="#071786"/>
            <stop offset="0.20375" stop-color="#071681"/>
            <stop offset="0.45046" stop-color="#061472"/>
            <stop offset="0.71937" stop-color="#04115A"/>
            <stop offset="1" stop-color="#020C38"/>
        </linearGradient>
        <linearGradient id="paint47_linear_606_1319" x1="186.366" y1="44.5027" x2="173.014" y2="37.3022" gradientUnits="userSpaceOnUse">
            <stop stop-color="#071786"/>
            <stop offset="0.19727" stop-color="#07167E"/>
            <stop offset="0.49836" stop-color="#051369"/>
            <stop offset="0.86391" stop-color="#030E47"/>
            <stop offset="1" stop-color="#020C38"/>
        </linearGradient>
        <linearGradient id="paint48_linear_606_1319" x1="181.507" y1="26.6826" x2="177.347" y2="18.7666" gradientUnits="userSpaceOnUse">
            <stop stop-color="#FFD1C1"/>
            <stop offset="0.29996" stop-color="#FFC4B1"/>
            <stop offset="0.88194" stop-color="#FFA288"/>
            <stop offset="1" stop-color="#FF9A7F"/>
        </linearGradient>
        <linearGradient id="paint49_linear_606_1319" x1="177.615" y1="26.2088" x2="173.77" y2="19.125" gradientUnits="userSpaceOnUse">
            <stop stop-color="#E7E6FF"/>
            <stop offset="0.3393" stop-color="#C9D2F8"/>
            <stop offset="0.76374" stop-color="#AABDF1"/>
            <stop offset="1" stop-color="#9EB5EE"/>
        </linearGradient>
        <linearGradient id="paint50_linear_606_1319" x1="174.5" y1="17.9999" x2="174.5" y2="27.0001" gradientUnits="userSpaceOnUse">
            <stop stop-color="#F9FBFC"/>
            <stop offset="0.29873" stop-color="#F5F8FC"/>
            <stop offset="0.60267" stop-color="#E9EFFD"/>
            <stop offset="0.90809" stop-color="#D4E0FE"/>
            <stop offset="0.9973" stop-color="#CDDBFF"/>
        </linearGradient>
        <linearGradient id="paint51_linear_606_1319" x1="180.492" y1="26.2671" x2="184.337" y2="19.1831" gradientUnits="userSpaceOnUse">
            <stop stop-color="#E7E6FF"/>
            <stop offset="0.3393" stop-color="#C9D2F8"/>
            <stop offset="0.76374" stop-color="#AABDF1"/>
            <stop offset="1" stop-color="#9EB5EE"/>
        </linearGradient>
        <linearGradient id="paint52_linear_606_1319" x1="183.5" y1="18.0001" x2="183.5" y2="26.9999" gradientUnits="userSpaceOnUse">
            <stop stop-color="#F9FBFC"/>
            <stop offset="0.29873" stop-color="#F5F8FC"/>
            <stop offset="0.60267" stop-color="#E9EFFD"/>
            <stop offset="0.90809" stop-color="#D4E0FE"/>
            <stop offset="0.9973" stop-color="#CDDBFF"/>
        </linearGradient>
        <linearGradient id="paint53_linear_606_1319" x1="170" y1="13" x2="188" y2="13" gradientUnits="userSpaceOnUse">
            <stop stop-color="#071786"/>
            <stop offset="0.15094" stop-color="#05136B"/>
            <stop offset="0.32365" stop-color="#041055"/>
            <stop offset="0.51068" stop-color="#030E45"/>
            <stop offset="0.72042" stop-color="#020C3B"/>
            <stop offset="1" stop-color="#020C38"/>
        </linearGradient>
        <linearGradient id="paint54_linear_606_1319" x1="172" y1="16" x2="186" y2="16" gradientUnits="userSpaceOnUse">
            <stop stop-color="#FFD1C1"/>
            <stop offset="0.31889" stop-color="#FFCFBE"/>
            <stop offset="0.53708" stop-color="#FFC7B5"/>
            <stop offset="0.72517" stop-color="#FFBAA6"/>
            <stop offset="0.89522" stop-color="#FFA990"/>
            <stop offset="1" stop-color="#FF9A7F"/>
        </linearGradient>
        <linearGradient id="paint55_linear_606_1319" x1="185" y1="12.5" x2="187" y2="12.5" gradientUnits="userSpaceOnUse">
            <stop stop-color="#071786"/>
            <stop offset="0.15094" stop-color="#05136B"/>
            <stop offset="0.32365" stop-color="#041055"/>
            <stop offset="0.51068" stop-color="#030E45"/>
            <stop offset="0.72042" stop-color="#020C3B"/>
            <stop offset="1" stop-color="#020C38"/>
        </linearGradient>
        <linearGradient id="paint56_linear_606_1319" x1="187" y1="18" x2="187" y2="12" gradientUnits="userSpaceOnUse">
            <stop stop-color="#FFD1C1"/>
            <stop offset="0.48891" stop-color="#FFCFBF"/>
            <stop offset="0.66499" stop-color="#FFCAB8"/>
            <stop offset="0.79047" stop-color="#FFC0AD"/>
            <stop offset="0.89197" stop-color="#FFB29C"/>
            <stop offset="0.97791" stop-color="#FFA086"/>
            <stop offset="1" stop-color="#FF9A7F"/>
        </linearGradient>
        <linearGradient id="paint57_linear_606_1319" x1="178" y1="17.5" x2="180" y2="17.5" gradientUnits="userSpaceOnUse">
            <stop stop-color="#EEA281"/>
            <stop offset="0.246" stop-color="#EE9C7B"/>
            <stop offset="0.58234" stop-color="#ED8A6C"/>
            <stop offset="0.9693" stop-color="#EC6E52"/>
            <stop offset="1" stop-color="#EC6B50"/>
        </linearGradient>
        <linearGradient id="paint58_linear_606_1319" x1="171" y1="18" x2="171" y2="12" gradientUnits="userSpaceOnUse">
            <stop stop-color="#FFD1C1"/>
            <stop offset="0.48891" stop-color="#FFCFBF"/>
            <stop offset="0.66499" stop-color="#FFCAB8"/>
            <stop offset="0.79047" stop-color="#FFC0AD"/>
            <stop offset="0.89197" stop-color="#FFB29C"/>
            <stop offset="0.97791" stop-color="#FFA086"/>
            <stop offset="1" stop-color="#FF9A7F"/>
        </linearGradient>
        <linearGradient id="paint59_linear_606_1319" x1="205" y1="102" x2="205" y2="84" gradientUnits="userSpaceOnUse">
            <stop stop-color="#FFD1C1"/>
            <stop offset="0.28058" stop-color="#FFCEBE"/>
            <stop offset="0.51036" stop-color="#FFC6B4"/>
            <stop offset="0.72215" stop-color="#FFB8A2"/>
            <stop offset="0.92206" stop-color="#FFA48B"/>
            <stop offset="1" stop-color="#FF9A7F"/>
        </linearGradient>
        <linearGradient id="paint60_linear_606_1319" x1="196" y1="96.5" x2="214" y2="96.5" gradientUnits="userSpaceOnUse">
            <stop stop-color="#071786"/>
            <stop offset="0.19727" stop-color="#07167E"/>
            <stop offset="0.49836" stop-color="#051369"/>
            <stop offset="0.86391" stop-color="#030E47"/>
            <stop offset="1" stop-color="#020C38"/>
        </linearGradient>
        <linearGradient id="paint61_linear_606_1319" x1="155" y1="102" x2="155" y2="84" gradientUnits="userSpaceOnUse">
            <stop stop-color="#FFD1C1"/>
            <stop offset="0.28058" stop-color="#FFCEBE"/>
            <stop offset="0.51036" stop-color="#FFC6B4"/>
            <stop offset="0.72215" stop-color="#FFB8A2"/>
            <stop offset="0.92206" stop-color="#FFA48B"/>
            <stop offset="1" stop-color="#FF9A7F"/>
        </linearGradient>
        <linearGradient id="paint62_linear_606_1319" x1="146" y1="96.5" x2="164" y2="96.5" gradientUnits="userSpaceOnUse">
            <stop stop-color="#071786"/>
            <stop offset="0.19727" stop-color="#07167E"/>
            <stop offset="0.49836" stop-color="#051369"/>
            <stop offset="0.86391" stop-color="#030E47"/>
            <stop offset="1" stop-color="#020C38"/>
        </linearGradient>
        <linearGradient id="paint63_linear_606_1319" x1="198.615" y1="23.8852" x2="199.353" y2="46.1469" gradientUnits="userSpaceOnUse">
            <stop stop-color="#FFD1C1"/>
            <stop offset="0.2863" stop-color="#FFCEBE"/>
            <stop offset="0.51407" stop-color="#FFC6B4"/>
            <stop offset="0.72169" stop-color="#FFB8A3"/>
            <stop offset="0.91626" stop-color="#FFA58C"/>
            <stop offset="1" stop-color="#FF9A7F"/>
        </linearGradient>
        <linearGradient id="paint64_linear_606_1319" x1="193.659" y1="37.7178" x2="195.659" y2="48.1298" gradientUnits="userSpaceOnUse">
            <stop stop-color="#FFD1C1"/>
            <stop offset="0.21866" stop-color="#FFCCBA"/>
            <stop offset="0.52672" stop-color="#FFBCA8"/>
            <stop offset="0.88625" stop-color="#FFA38A"/>
            <stop offset="1" stop-color="#FF9A7F"/>
        </linearGradient>
        <linearGradient id="paint65_linear_606_1319" x1="165.878" y1="37.7179" x2="163.955" y2="48.1602" gradientUnits="userSpaceOnUse">
            <stop stop-color="#FFD1C1"/>
            <stop offset="0.21866" stop-color="#FFCCBA"/>
            <stop offset="0.52672" stop-color="#FFBCA8"/>
            <stop offset="0.88625" stop-color="#FFA38A"/>
            <stop offset="1" stop-color="#FF9A7F"/>
        </linearGradient>
    </defs>
</svg>